<svg xmlns="http://www.w3.org/2000/svg" xmlns:xlink="http://www.w3.org/1999/xlink" width="1024" zoomAndPan="magnify" viewBox="0 0 768 225" height="300" preserveAspectRatio="xMidYMid meet" version="1.0"><defs><g/></defs><g fill="#eeeae0" fill-opacity="1"><g transform="translate(289.886855, 157.552536)"><g><path d="M 15.6875 0.21875 L 2.921875 -16.390625 L 2.921875 -4.53125 C 2.921875 -3.5 2.992188 -2.703125 3.140625 -2.140625 C 3.285156 -1.578125 3.5 -1.164062 3.78125 -0.90625 C 4.0625 -0.644531 4.398438 -0.460938 4.796875 -0.359375 L 4.796875 0 L 1.40625 0 L 1.40625 -0.359375 C 1.820312 -0.484375 2.109375 -0.75 2.265625 -1.15625 C 2.421875 -1.570312 2.5 -2.332031 2.5 -3.4375 L 2.5 -15.53125 C 2.5 -16.644531 2.394531 -17.40625 2.1875 -17.8125 C 1.988281 -18.21875 1.617188 -18.484375 1.078125 -18.609375 L 1.078125 -18.96875 L 3.734375 -18.96875 L 15.578125 -3.625 L 15.578125 -14.4375 C 15.578125 -15.46875 15.503906 -16.265625 15.359375 -16.828125 C 15.210938 -17.398438 15.003906 -17.8125 14.734375 -18.0625 C 14.460938 -18.320312 14.117188 -18.503906 13.703125 -18.609375 L 13.703125 -18.96875 L 17.125 -18.96875 L 17.125 -18.609375 C 16.707031 -18.484375 16.421875 -18.21875 16.265625 -17.8125 C 16.117188 -17.40625 16.046875 -16.644531 16.046875 -15.53125 L 16.046875 0.21875 Z M 15.6875 0.21875 "/></g></g></g><g fill="#eeeae0" fill-opacity="1"><g transform="translate(312.347158, 157.552536)"><g><path d="M 11.046875 0.265625 C 9.890625 0.265625 8.742188 0.0703125 7.609375 -0.3125 C 6.472656 -0.695312 5.4375 -1.289062 4.5 -2.09375 C 3.5625 -2.90625 2.8125 -3.921875 2.25 -5.140625 C 1.6875 -6.367188 1.40625 -7.828125 1.40625 -9.515625 C 1.40625 -11.367188 1.8125 -13.019531 2.625 -14.46875 C 3.4375 -15.925781 4.566406 -17.078125 6.015625 -17.921875 C 7.460938 -18.765625 9.140625 -19.1875 11.046875 -19.1875 C 12.191406 -19.1875 13.332031 -18.984375 14.46875 -18.578125 C 15.601562 -18.179688 16.632812 -17.582031 17.5625 -16.78125 C 18.5 -15.976562 19.242188 -14.960938 19.796875 -13.734375 C 20.359375 -12.503906 20.640625 -11.0625 20.640625 -9.40625 C 20.640625 -7.71875 20.359375 -6.269531 19.796875 -5.0625 C 19.242188 -3.851562 18.492188 -2.847656 17.546875 -2.046875 C 16.609375 -1.253906 15.578125 -0.671875 14.453125 -0.296875 C 13.328125 0.078125 12.191406 0.265625 11.046875 0.265625 Z M 3.578125 -11.078125 C 3.628906 -9.722656 3.875 -8.410156 4.3125 -7.140625 C 4.757812 -5.867188 5.363281 -4.722656 6.125 -3.703125 C 6.894531 -2.691406 7.796875 -1.890625 8.828125 -1.296875 C 9.859375 -0.703125 10.976562 -0.40625 12.1875 -0.40625 C 13.632812 -0.40625 14.835938 -0.71875 15.796875 -1.34375 C 16.753906 -1.976562 17.460938 -2.84375 17.921875 -3.9375 C 18.378906 -5.03125 18.582031 -6.253906 18.53125 -7.609375 C 18.476562 -9.023438 18.226562 -10.382812 17.78125 -11.6875 C 17.34375 -13 16.742188 -14.171875 15.984375 -15.203125 C 15.222656 -16.234375 14.328125 -17.050781 13.296875 -17.65625 C 12.273438 -18.257812 11.15625 -18.5625 9.9375 -18.5625 C 8.570312 -18.5625 7.40625 -18.242188 6.4375 -17.609375 C 5.46875 -16.972656 4.734375 -16.09375 4.234375 -14.96875 C 3.742188 -13.851562 3.523438 -12.554688 3.578125 -11.078125 Z M 3.578125 -11.078125 "/></g></g></g><g fill="#eeeae0" fill-opacity="1"><g transform="translate(338.627522, 157.552536)"><g><path d="M 9.671875 -15.765625 C 9.273438 -16.796875 8.910156 -17.492188 8.578125 -17.859375 C 8.242188 -18.234375 7.921875 -18.484375 7.609375 -18.609375 L 7.609375 -18.96875 L 11.765625 -18.96875 L 11.765625 -18.609375 C 11.359375 -18.484375 11.191406 -18.234375 11.265625 -17.859375 C 11.335938 -17.492188 11.582031 -16.804688 12 -15.796875 L 13.46875 -12.21875 L 14.765625 -15.734375 C 15.109375 -16.640625 15.253906 -17.320312 15.203125 -17.78125 C 15.148438 -18.25 14.894531 -18.523438 14.4375 -18.609375 L 14.4375 -18.96875 L 17.421875 -18.96875 L 17.421875 -18.609375 C 17.046875 -18.484375 16.6875 -18.226562 16.34375 -17.84375 C 16 -17.46875 15.632812 -16.765625 15.25 -15.734375 L 13.734375 -11.59375 L 17.390625 -2.734375 L 22.109375 -15.734375 C 22.742188 -17.453125 22.597656 -18.410156 21.671875 -18.609375 L 21.671875 -18.96875 L 24.734375 -18.96875 L 24.734375 -18.609375 C 24.359375 -18.484375 24 -18.226562 23.65625 -17.84375 C 23.3125 -17.46875 22.945312 -16.765625 22.5625 -15.734375 L 16.90625 0 L 16.140625 0 L 12.375 -9.1875 L 8.640625 0 L 7.890625 0 L 1.890625 -15.734375 C 1.492188 -16.785156 1.140625 -17.492188 0.828125 -17.859375 C 0.515625 -18.234375 0.203125 -18.484375 -0.109375 -18.609375 L -0.109375 -18.96875 L 4.09375 -18.96875 L 4.09375 -18.609375 C 3.675781 -18.484375 3.492188 -18.234375 3.546875 -17.859375 C 3.597656 -17.492188 3.828125 -16.785156 4.234375 -15.734375 L 9.234375 -2.6875 L 12.140625 -9.78125 Z M 9.671875 -15.765625 "/></g></g></g><g fill="#eeeae0" fill-opacity="1"><g transform="translate(367.454589, 157.552536)"><g><path d="M -0.453125 0 L -0.453125 -0.359375 C -0.078125 -0.484375 0.285156 -0.726562 0.640625 -1.09375 C 1.003906 -1.46875 1.394531 -2.171875 1.8125 -3.203125 L 7.15625 -16.421875 C 7.3125 -16.847656 7.289062 -17.269531 7.09375 -17.6875 L 6.859375 -18.265625 L 8.890625 -19.1875 L 15.546875 -3.171875 C 15.960938 -2.160156 16.335938 -1.46875 16.671875 -1.09375 C 17.003906 -0.726562 17.316406 -0.484375 17.609375 -0.359375 L 17.609375 0 L 13.40625 0 L 13.40625 -0.359375 C 13.820312 -0.484375 13.992188 -0.726562 13.921875 -1.09375 C 13.847656 -1.46875 13.597656 -2.160156 13.171875 -3.171875 L 11.515625 -7.15625 L 3.875 -7.15625 L 2.28125 -3.203125 C 1.59375 -1.484375 1.695312 -0.535156 2.59375 -0.359375 L 2.59375 0 Z M 4.03125 -7.5625 L 11.359375 -7.5625 L 7.640625 -16.46875 Z M 4.03125 -7.5625 "/></g></g></g><g fill="#eeeae0" fill-opacity="1"><g transform="translate(389.07501, 157.552536)"><g/></g></g><g fill="#eeeae0" fill-opacity="1"><g transform="translate(399.018504, 157.552536)"><g><path d="M 1.375 0 L 1.375 -0.359375 C 1.789062 -0.484375 2.078125 -0.75 2.234375 -1.15625 C 2.390625 -1.570312 2.46875 -2.332031 2.46875 -3.4375 L 2.46875 -15.53125 C 2.46875 -16.644531 2.390625 -17.40625 2.234375 -17.8125 C 2.078125 -18.21875 1.789062 -18.484375 1.375 -18.609375 L 1.375 -18.96875 L 7.859375 -18.96875 C 9.710938 -18.96875 11.300781 -18.695312 12.625 -18.15625 C 13.945312 -17.625 15.019531 -16.914062 15.84375 -16.03125 C 16.675781 -15.15625 17.285156 -14.175781 17.671875 -13.09375 C 18.066406 -12.019531 18.265625 -10.929688 18.265625 -9.828125 C 18.273438 -7.929688 17.878906 -6.242188 17.078125 -4.765625 C 16.273438 -3.285156 15.132812 -2.117188 13.65625 -1.265625 C 12.1875 -0.421875 10.460938 0 8.484375 0 Z M 4.6875 -2.390625 C 4.6875 -1.753906 4.796875 -1.265625 5.015625 -0.921875 C 5.234375 -0.578125 5.710938 -0.40625 6.453125 -0.40625 L 8.421875 -0.40625 C 10.785156 -0.40625 12.601562 -1.085938 13.875 -2.453125 C 15.15625 -3.816406 15.796875 -5.914062 15.796875 -8.75 C 15.796875 -10.550781 15.441406 -12.191406 14.734375 -13.671875 C 14.035156 -15.160156 13 -16.347656 11.625 -17.234375 C 10.25 -18.117188 8.550781 -18.5625 6.53125 -18.5625 L 4.6875 -18.5625 Z M 4.6875 -2.390625 "/></g></g></g><g fill="#eeeae0" fill-opacity="1"><g transform="translate(422.914705, 157.552536)"><g><path d="M 15.171875 0.1875 C 14.484375 0.1875 13.941406 0.0195312 13.546875 -0.3125 C 13.148438 -0.644531 12.800781 -1.128906 12.5 -1.765625 C 12.207031 -2.410156 11.859375 -3.203125 11.453125 -4.140625 C 11.054688 -5.078125 10.722656 -5.898438 10.453125 -6.609375 C 10.179688 -7.316406 9.890625 -7.90625 9.578125 -8.375 C 9.265625 -8.84375 8.863281 -9.191406 8.375 -9.421875 C 7.882812 -9.660156 7.234375 -9.78125 6.421875 -9.78125 L 4.6875 -9.78125 L 4.6875 -3.4375 C 4.6875 -2.332031 4.757812 -1.570312 4.90625 -1.15625 C 5.0625 -0.75 5.347656 -0.484375 5.765625 -0.359375 L 5.765625 0 L 1.375 0 L 1.375 -0.359375 C 1.789062 -0.484375 2.078125 -0.75 2.234375 -1.15625 C 2.390625 -1.570312 2.46875 -2.332031 2.46875 -3.4375 L 2.46875 -15.53125 C 2.46875 -16.644531 2.390625 -17.40625 2.234375 -17.8125 C 2.078125 -18.21875 1.789062 -18.484375 1.375 -18.609375 L 1.375 -18.96875 L 6.71875 -18.96875 C 8.5625 -18.96875 10 -18.78125 11.03125 -18.40625 C 12.0625 -18.039062 12.785156 -17.539062 13.203125 -16.90625 C 13.628906 -16.269531 13.84375 -15.546875 13.84375 -14.734375 C 13.84375 -13.472656 13.390625 -12.394531 12.484375 -11.5 C 11.585938 -10.601562 10.253906 -10.054688 8.484375 -9.859375 C 9.316406 -9.753906 9.992188 -9.566406 10.515625 -9.296875 C 11.035156 -9.035156 11.46875 -8.6875 11.8125 -8.25 C 12.15625 -7.8125 12.460938 -7.273438 12.734375 -6.640625 C 13.003906 -6.003906 13.300781 -5.269531 13.625 -4.4375 C 14.0625 -3.351562 14.425781 -2.515625 14.71875 -1.921875 C 15.019531 -1.328125 15.296875 -0.90625 15.546875 -0.65625 C 15.804688 -0.414062 16.085938 -0.296875 16.390625 -0.296875 C 16.484375 -0.296875 16.5625 -0.296875 16.625 -0.296875 C 16.6875 -0.296875 16.753906 -0.304688 16.828125 -0.328125 L 16.828125 0 C 16.628906 0.0703125 16.367188 0.117188 16.046875 0.140625 C 15.734375 0.171875 15.441406 0.1875 15.171875 0.1875 Z M 4.6875 -10.1875 L 6.96875 -10.1875 C 8.519531 -10.1875 9.671875 -10.550781 10.421875 -11.28125 C 11.171875 -12.007812 11.546875 -12.953125 11.546875 -14.109375 C 11.546875 -14.921875 11.359375 -15.660156 10.984375 -16.328125 C 10.617188 -17.003906 10.023438 -17.546875 9.203125 -17.953125 C 8.378906 -18.359375 7.296875 -18.5625 5.953125 -18.5625 C 5.753906 -18.5625 5.546875 -18.554688 5.328125 -18.546875 C 5.117188 -18.535156 4.90625 -18.519531 4.6875 -18.5 Z M 4.6875 -10.1875 "/></g></g></g><g fill="#eeeae0" fill-opacity="1"><g transform="translate(443.749445, 157.552536)"><g><path d="M 11.046875 0.265625 C 9.890625 0.265625 8.742188 0.0703125 7.609375 -0.3125 C 6.472656 -0.695312 5.4375 -1.289062 4.5 -2.09375 C 3.5625 -2.90625 2.8125 -3.921875 2.25 -5.140625 C 1.6875 -6.367188 1.40625 -7.828125 1.40625 -9.515625 C 1.40625 -11.367188 1.8125 -13.019531 2.625 -14.46875 C 3.4375 -15.925781 4.566406 -17.078125 6.015625 -17.921875 C 7.460938 -18.765625 9.140625 -19.1875 11.046875 -19.1875 C 12.191406 -19.1875 13.332031 -18.984375 14.46875 -18.578125 C 15.601562 -18.179688 16.632812 -17.582031 17.5625 -16.78125 C 18.5 -15.976562 19.242188 -14.960938 19.796875 -13.734375 C 20.359375 -12.503906 20.640625 -11.0625 20.640625 -9.40625 C 20.640625 -7.71875 20.359375 -6.269531 19.796875 -5.0625 C 19.242188 -3.851562 18.492188 -2.847656 17.546875 -2.046875 C 16.609375 -1.253906 15.578125 -0.671875 14.453125 -0.296875 C 13.328125 0.078125 12.191406 0.265625 11.046875 0.265625 Z M 3.578125 -11.078125 C 3.628906 -9.722656 3.875 -8.410156 4.3125 -7.140625 C 4.757812 -5.867188 5.363281 -4.722656 6.125 -3.703125 C 6.894531 -2.691406 7.796875 -1.890625 8.828125 -1.296875 C 9.859375 -0.703125 10.976562 -0.40625 12.1875 -0.40625 C 13.632812 -0.40625 14.835938 -0.71875 15.796875 -1.34375 C 16.753906 -1.976562 17.460938 -2.84375 17.921875 -3.9375 C 18.378906 -5.03125 18.582031 -6.253906 18.53125 -7.609375 C 18.476562 -9.023438 18.226562 -10.382812 17.78125 -11.6875 C 17.34375 -13 16.742188 -14.171875 15.984375 -15.203125 C 15.222656 -16.234375 14.328125 -17.050781 13.296875 -17.65625 C 12.273438 -18.257812 11.15625 -18.5625 9.9375 -18.5625 C 8.570312 -18.5625 7.40625 -18.242188 6.4375 -17.609375 C 5.46875 -16.972656 4.734375 -16.09375 4.234375 -14.96875 C 3.742188 -13.851562 3.523438 -12.554688 3.578125 -11.078125 Z M 3.578125 -11.078125 "/></g></g></g><g fill="#eeeae0" fill-opacity="1"><g transform="translate(470.029813, 157.552536)"><g><path d="M 11.375 0.265625 C 9.375 0.265625 7.625 -0.128906 6.125 -0.921875 C 4.625 -1.710938 3.460938 -2.828125 2.640625 -4.265625 C 1.816406 -5.703125 1.40625 -7.394531 1.40625 -9.34375 C 1.40625 -10.695312 1.644531 -11.96875 2.125 -13.15625 C 2.601562 -14.351562 3.28125 -15.398438 4.15625 -16.296875 C 5.03125 -17.191406 6.070312 -17.890625 7.28125 -18.390625 C 8.5 -18.898438 9.828125 -19.15625 11.265625 -19.15625 C 12.078125 -19.15625 12.875 -19.085938 13.65625 -18.953125 C 14.445312 -18.816406 15.164062 -18.640625 15.8125 -18.421875 C 16.46875 -18.203125 16.96875 -17.976562 17.3125 -17.75 L 17.421875 -14.546875 L 17.15625 -14.5 C 16.820312 -15.269531 16.332031 -15.972656 15.6875 -16.609375 C 15.039062 -17.242188 14.273438 -17.742188 13.390625 -18.109375 C 12.515625 -18.484375 11.546875 -18.671875 10.484375 -18.671875 C 9.179688 -18.671875 8.015625 -18.375 6.984375 -17.78125 C 5.960938 -17.195312 5.144531 -16.335938 4.53125 -15.203125 C 3.925781 -14.066406 3.617188 -12.664062 3.609375 -11 C 3.585938 -9.71875 3.765625 -8.441406 4.140625 -7.171875 C 4.523438 -5.910156 5.09375 -4.753906 5.84375 -3.703125 C 6.59375 -2.660156 7.5 -1.828125 8.5625 -1.203125 C 9.625 -0.578125 10.84375 -0.265625 12.21875 -0.265625 C 13.226562 -0.265625 14.140625 -0.503906 14.953125 -0.984375 C 15.765625 -1.460938 16.34375 -2.035156 16.6875 -2.703125 L 16.65625 -5.46875 C 16.65625 -6.320312 16.566406 -6.9375 16.390625 -7.3125 C 16.222656 -7.695312 15.851562 -7.957031 15.28125 -8.09375 L 15.28125 -8.421875 L 18.828125 -8.421875 L 18.828125 -3.328125 C 18.304688 -2.609375 17.632812 -1.976562 16.8125 -1.4375 C 15.988281 -0.894531 15.109375 -0.472656 14.171875 -0.171875 C 13.234375 0.117188 12.300781 0.265625 11.375 0.265625 Z M 11.375 0.265625 "/></g></g></g><g fill="#eeeae0" fill-opacity="1"><g transform="translate(494.386588, 157.552536)"><g><path d="M -0.453125 0 L -0.453125 -0.359375 C -0.078125 -0.484375 0.285156 -0.726562 0.640625 -1.09375 C 1.003906 -1.46875 1.394531 -2.171875 1.8125 -3.203125 L 7.15625 -16.421875 C 7.3125 -16.847656 7.289062 -17.269531 7.09375 -17.6875 L 6.859375 -18.265625 L 8.890625 -19.1875 L 15.546875 -3.171875 C 15.960938 -2.160156 16.335938 -1.46875 16.671875 -1.09375 C 17.003906 -0.726562 17.316406 -0.484375 17.609375 -0.359375 L 17.609375 0 L 13.40625 0 L 13.40625 -0.359375 C 13.820312 -0.484375 13.992188 -0.726562 13.921875 -1.09375 C 13.847656 -1.46875 13.597656 -2.160156 13.171875 -3.171875 L 11.515625 -7.15625 L 3.875 -7.15625 L 2.28125 -3.203125 C 1.59375 -1.484375 1.695312 -0.535156 2.59375 -0.359375 L 2.59375 0 Z M 4.03125 -7.5625 L 11.359375 -7.5625 L 7.640625 -16.46875 Z M 4.03125 -7.5625 "/></g></g></g><g fill="#e1bf98" fill-opacity="1"><g transform="translate(305.872162, 183.116099)"><g><path d="M 3.375 -0.625 L 3.375 0 L 0.421875 0 L 0.421875 -0.625 L 1.296875 -0.828125 L 1.296875 -6.4375 L 0.421875 -6.640625 L 0.421875 -7.203125 L 3.375 -7.265625 L 3.375 -6.640625 L 2.390625 -6.4375 L 2.390625 -4.15625 L 3.34375 -4.15625 L 5.140625 -7.203125 L 6.84375 -7.265625 L 6.84375 -6.640625 L 5.828125 -6.4375 L 4.25 -3.8125 L 6.375 -0.828125 L 7.265625 -0.625 L 7.265625 0 L 4.3125 0 L 4.3125 -0.625 L 5.1875 -0.828125 L 3.40625 -3.3125 L 2.390625 -3.3125 L 2.390625 -0.828125 Z M 3.375 -0.625 "/></g></g></g><g fill="#e1bf98" fill-opacity="1"><g transform="translate(316.096241, 183.116099)"><g><path d="M 0.046875 0 L 0.046875 -0.625 L 0.90625 -0.8125 L 3.265625 -7.203125 L 4.3125 -7.265625 L 6.609375 -0.8125 L 7.46875 -0.625 L 7.46875 0 L 4.46875 0 L 4.46875 -0.625 L 5.421875 -0.8125 L 5.03125 -1.96875 L 2.328125 -1.96875 L 1.9375 -0.8125 L 2.90625 -0.625 L 2.90625 0 Z M 3.703125 -5.921875 L 2.609375 -2.796875 L 4.75 -2.796875 Z M 3.703125 -5.921875 "/></g></g></g><g fill="#e1bf98" fill-opacity="1"><g transform="translate(326.47583, 183.116099)"><g><path d="M 4.515625 -0.625 L 4.515625 0 L 1.34375 0 L 1.34375 -0.625 L 2.390625 -0.828125 L 2.390625 -6.4375 L 1.03125 -6.4375 L 0.78125 -5.390625 L 0.109375 -5.390625 L 0.109375 -7.265625 L 5.765625 -7.265625 L 5.765625 -5.390625 L 5.078125 -5.390625 L 4.828125 -6.4375 L 3.46875 -6.4375 L 3.46875 -0.828125 Z M 4.515625 -0.625 "/></g></g></g><g fill="#e1bf98" fill-opacity="1"><g transform="translate(335.19664, 183.116099)"><g><path d="M 0.046875 0 L 0.046875 -0.625 L 0.90625 -0.8125 L 3.265625 -7.203125 L 4.3125 -7.265625 L 6.609375 -0.8125 L 7.46875 -0.625 L 7.46875 0 L 4.46875 0 L 4.46875 -0.625 L 5.421875 -0.8125 L 5.03125 -1.96875 L 2.328125 -1.96875 L 1.9375 -0.8125 L 2.90625 -0.625 L 2.90625 0 Z M 3.703125 -5.921875 L 2.609375 -2.796875 L 4.75 -2.796875 Z M 3.703125 -5.921875 "/></g></g></g><g fill="#e1bf98" fill-opacity="1"><g transform="translate(345.57623, 183.116099)"><g><path d="M 0.421875 0 L 0.421875 -0.625 L 1.296875 -0.828125 L 1.296875 -6.4375 L 0.421875 -6.640625 L 0.421875 -7.203125 L 2.390625 -7.265625 L 3.53125 -7.265625 C 4.257812 -7.265625 4.828125 -7.097656 5.234375 -6.765625 C 5.648438 -6.429688 5.859375 -5.972656 5.859375 -5.390625 C 5.859375 -4.378906 5.410156 -3.707031 4.515625 -3.375 C 4.679688 -3.226562 4.890625 -2.914062 5.140625 -2.4375 L 5.953125 -0.78125 L 6.6875 -0.625 L 6.6875 0 L 5.140625 0 L 4.25 -1.921875 C 4.007812 -2.441406 3.800781 -2.78125 3.625 -2.9375 C 3.445312 -3.09375 3.191406 -3.171875 2.859375 -3.171875 L 2.390625 -3.171875 L 2.390625 -0.828125 L 3.265625 -0.625 L 3.265625 0 Z M 2.390625 -6.4375 L 2.390625 -3.9375 L 3.171875 -3.9375 C 3.671875 -3.9375 4.0625 -4.050781 4.34375 -4.28125 C 4.625 -4.507812 4.765625 -4.8125 4.765625 -5.1875 C 4.765625 -5.570312 4.644531 -5.875 4.40625 -6.09375 C 4.164062 -6.320312 3.851562 -6.4375 3.46875 -6.4375 Z M 2.390625 -6.4375 "/></g></g></g><g fill="#e1bf98" fill-opacity="1"><g transform="translate(355.17827, 183.116099)"><g><path d="M 0.71875 -7.265625 L 5.96875 -7.265625 L 5.96875 -6.53125 L 1.8125 -0.828125 L 5.03125 -0.828125 L 5.234375 -1.875 L 5.90625 -1.875 L 5.90625 0 L 0.421875 0 L 0.421875 -0.71875 L 4.5625 -6.4375 L 1.65625 -6.4375 L 1.40625 -5.390625 L 0.71875 -5.390625 Z M 0.71875 -7.265625 "/></g></g></g><g fill="#e1bf98" fill-opacity="1"><g transform="translate(364.417446, 183.116099)"><g><path d="M 1.921875 0 L 1.921875 -0.625 L 2.796875 -0.828125 L 2.796875 -2.6875 L 0.796875 -6.4375 L 0.109375 -6.640625 L 0.109375 -7.203125 L 2.703125 -7.265625 L 2.703125 -6.640625 L 1.984375 -6.4375 L 3.375 -3.53125 L 4.890625 -6.4375 L 4.09375 -6.640625 L 4.09375 -7.203125 L 6.59375 -7.265625 L 6.59375 -6.640625 L 5.9375 -6.453125 L 3.890625 -2.703125 L 3.890625 -0.828125 L 4.765625 -0.625 L 4.765625 0 Z M 1.921875 0 "/></g></g></g><g fill="#e1bf98" fill-opacity="1"><g transform="translate(373.967641, 183.116099)"><g><path d="M 5.65625 0 L 2.234375 -5.71875 L 2.234375 -0.828125 L 3.21875 -0.625 L 3.21875 0 L 0.421875 0 L 0.421875 -0.625 L 1.296875 -0.828125 L 1.296875 -6.4375 L 0.421875 -6.640625 L 0.421875 -7.203125 L 2.59375 -7.265625 L 6.015625 -1.46875 L 6.015625 -6.4375 L 5.140625 -6.640625 L 5.140625 -7.203125 L 7.828125 -7.265625 L 7.828125 -6.640625 L 6.953125 -6.4375 L 6.953125 0 Z M 5.65625 0 "/></g></g></g><g fill="#e1bf98" fill-opacity="1"><g transform="translate(385.021104, 183.116099)"><g><path d="M 0.046875 0 L 0.046875 -0.625 L 0.90625 -0.8125 L 3.265625 -7.203125 L 4.3125 -7.265625 L 6.609375 -0.8125 L 7.46875 -0.625 L 7.46875 0 L 4.46875 0 L 4.46875 -0.625 L 5.421875 -0.8125 L 5.03125 -1.96875 L 2.328125 -1.96875 L 1.9375 -0.8125 L 2.90625 -0.625 L 2.90625 0 Z M 3.703125 -5.921875 L 2.609375 -2.796875 L 4.75 -2.796875 Z M 3.703125 -5.921875 "/></g></g></g><g fill="#e1bf98" fill-opacity="1"><g transform="translate(395.400694, 183.116099)"><g/></g></g><g fill="#e1bf98" fill-opacity="1"><g transform="translate(400.648456, 183.116099)"><g><path d="M 4.515625 -0.625 L 4.515625 0 L 1.34375 0 L 1.34375 -0.625 L 2.390625 -0.828125 L 2.390625 -6.4375 L 1.03125 -6.4375 L 0.78125 -5.390625 L 0.109375 -5.390625 L 0.109375 -7.265625 L 5.765625 -7.265625 L 5.765625 -5.390625 L 5.078125 -5.390625 L 4.828125 -6.4375 L 3.46875 -6.4375 L 3.46875 -0.828125 Z M 4.515625 -0.625 "/></g></g></g><g fill="#e1bf98" fill-opacity="1"><g transform="translate(409.369269, 183.116099)"><g><path d="M 0.625 -3.546875 C 0.625 -4.128906 0.703125 -4.65625 0.859375 -5.125 C 1.015625 -5.59375 1.238281 -5.992188 1.53125 -6.328125 C 1.832031 -6.671875 2.1875 -6.925781 2.59375 -7.09375 C 3.007812 -7.269531 3.46875 -7.359375 3.96875 -7.359375 C 4.476562 -7.359375 4.929688 -7.273438 5.328125 -7.109375 C 5.734375 -6.941406 6.078125 -6.695312 6.359375 -6.375 C 6.640625 -6.0625 6.847656 -5.675781 6.984375 -5.21875 C 7.128906 -4.769531 7.203125 -4.269531 7.203125 -3.71875 C 7.203125 -3.15625 7.117188 -2.640625 6.953125 -2.171875 C 6.796875 -1.703125 6.566406 -1.300781 6.265625 -0.96875 C 5.960938 -0.632812 5.597656 -0.367188 5.171875 -0.171875 C 4.753906 0.015625 4.289062 0.109375 3.78125 0.109375 C 2.757812 0.109375 1.976562 -0.203125 1.4375 -0.828125 C 0.894531 -1.460938 0.625 -2.367188 0.625 -3.546875 Z M 3.9375 -6.484375 C 2.519531 -6.484375 1.8125 -5.53125 1.8125 -3.625 C 1.8125 -1.726562 2.488281 -0.78125 3.84375 -0.78125 C 4.53125 -0.78125 5.0625 -1.019531 5.4375 -1.5 C 5.820312 -1.988281 6.015625 -2.71875 6.015625 -3.6875 C 6.015625 -5.550781 5.320312 -6.484375 3.9375 -6.484375 Z M 3.9375 -6.484375 "/></g></g></g><g fill="#e1bf98" fill-opacity="1"><g transform="translate(420.059873, 183.116099)"><g><path d="M 3.375 -0.625 L 3.375 0 L 0.421875 0 L 0.421875 -0.625 L 1.296875 -0.828125 L 1.296875 -6.4375 L 0.421875 -6.640625 L 0.421875 -7.203125 L 3.375 -7.265625 L 3.375 -6.640625 L 2.390625 -6.4375 L 2.390625 -4.15625 L 3.34375 -4.15625 L 5.140625 -7.203125 L 6.84375 -7.265625 L 6.84375 -6.640625 L 5.828125 -6.4375 L 4.25 -3.8125 L 6.375 -0.828125 L 7.265625 -0.625 L 7.265625 0 L 4.3125 0 L 4.3125 -0.625 L 5.1875 -0.828125 L 3.40625 -3.3125 L 2.390625 -3.3125 L 2.390625 -0.828125 Z M 3.375 -0.625 "/></g></g></g><g fill="#e1bf98" fill-opacity="1"><g transform="translate(430.283953, 183.116099)"><g><path d="M 0.046875 0 L 0.046875 -0.625 L 0.90625 -0.8125 L 3.265625 -7.203125 L 4.3125 -7.265625 L 6.609375 -0.8125 L 7.46875 -0.625 L 7.46875 0 L 4.46875 0 L 4.46875 -0.625 L 5.421875 -0.8125 L 5.03125 -1.96875 L 2.328125 -1.96875 L 1.9375 -0.8125 L 2.90625 -0.625 L 2.90625 0 Z M 3.703125 -5.921875 L 2.609375 -2.796875 L 4.75 -2.796875 Z M 3.703125 -5.921875 "/></g></g></g><g fill="#e1bf98" fill-opacity="1"><g transform="translate(440.663544, 183.116099)"><g><path d="M 0.453125 -7.203125 L 3.3125 -7.265625 L 3.3125 -6.640625 L 2.421875 -6.4375 L 2.421875 -0.46875 C 2.421875 0.164062 2.242188 0.660156 1.890625 1.015625 C 1.546875 1.378906 1.066406 1.5625 0.453125 1.5625 L -0.203125 1.5 L -0.109375 0.71875 L 0.40625 0.71875 C 1.03125 0.71875 1.34375 0.390625 1.34375 -0.265625 L 1.34375 -6.4375 L 0.453125 -6.640625 Z M 0.453125 -7.203125 "/></g></g></g><g fill="#e1bf98" fill-opacity="1"><g transform="translate(447.248686, 183.116099)"><g/></g></g><g fill="#e1bf98" fill-opacity="1"><g transform="translate(452.496447, 183.116099)"><g><path d="M 5.390625 -5.09375 L 5.109375 -6.28125 C 4.734375 -6.414062 4.289062 -6.484375 3.78125 -6.484375 C 3.082031 -6.484375 2.546875 -6.226562 2.171875 -5.71875 C 1.796875 -5.207031 1.609375 -4.488281 1.609375 -3.5625 C 1.609375 -2.632812 1.8125 -1.945312 2.21875 -1.5 C 2.625 -1.050781 3.164062 -0.828125 3.84375 -0.828125 C 3.988281 -0.828125 4.148438 -0.84375 4.328125 -0.875 C 4.503906 -0.914062 4.675781 -0.96875 4.84375 -1.03125 C 5.007812 -1.09375 5.160156 -1.160156 5.296875 -1.234375 C 5.441406 -1.304688 5.554688 -1.378906 5.640625 -1.453125 L 5.90625 -1.65625 L 6.328125 -0.984375 C 6.171875 -0.828125 5.992188 -0.679688 5.796875 -0.546875 C 5.609375 -0.421875 5.398438 -0.304688 5.171875 -0.203125 C 4.941406 -0.109375 4.707031 -0.0351562 4.46875 0.015625 C 4.226562 0.078125 3.984375 0.109375 3.734375 0.109375 C 2.671875 0.109375 1.851562 -0.195312 1.28125 -0.8125 C 0.707031 -1.425781 0.421875 -2.320312 0.421875 -3.5 C 0.421875 -4.082031 0.5 -4.613281 0.65625 -5.09375 C 0.820312 -5.570312 1.054688 -5.976562 1.359375 -6.3125 C 1.660156 -6.644531 2.023438 -6.898438 2.453125 -7.078125 C 2.878906 -7.265625 3.359375 -7.359375 3.890625 -7.359375 C 4.046875 -7.359375 4.21875 -7.347656 4.40625 -7.328125 C 4.601562 -7.304688 4.789062 -7.273438 4.96875 -7.234375 C 5.15625 -7.191406 5.328125 -7.144531 5.484375 -7.09375 C 5.648438 -7.050781 5.785156 -7.007812 5.890625 -6.96875 L 6.21875 -6.84375 L 6.171875 -5.09375 Z M 5.390625 -5.09375 "/></g></g></g><g fill="#e1bf98" fill-opacity="1"><g transform="translate(462.046643, 183.116099)"><g><path d="M 0.71875 -7.265625 L 5.96875 -7.265625 L 5.96875 -6.53125 L 1.8125 -0.828125 L 5.03125 -0.828125 L 5.234375 -1.875 L 5.90625 -1.875 L 5.90625 0 L 0.421875 0 L 0.421875 -0.71875 L 4.5625 -6.4375 L 1.65625 -6.4375 L 1.40625 -5.390625 L 0.71875 -5.390625 Z M 0.71875 -7.265625 "/></g></g></g><g fill="#e1bf98" fill-opacity="1"><g transform="translate(471.285818, 183.116099)"><g><path d="M 0.046875 0 L 0.046875 -0.625 L 0.90625 -0.8125 L 3.265625 -7.203125 L 4.3125 -7.265625 L 6.609375 -0.8125 L 7.46875 -0.625 L 7.46875 0 L 4.46875 0 L 4.46875 -0.625 L 5.421875 -0.8125 L 5.03125 -1.96875 L 2.328125 -1.96875 L 1.9375 -0.8125 L 2.90625 -0.625 L 2.90625 0 Z M 3.703125 -5.921875 L 2.609375 -2.796875 L 4.75 -2.796875 Z M 3.703125 -5.921875 "/></g></g></g><g fill="#e1bf98" fill-opacity="1"><g transform="translate(481.665409, 183.116099)"><g><path d="M 0.453125 -7.203125 L 3.3125 -7.265625 L 3.3125 -6.640625 L 2.421875 -6.4375 L 2.421875 -0.46875 C 2.421875 0.164062 2.242188 0.660156 1.890625 1.015625 C 1.546875 1.378906 1.066406 1.5625 0.453125 1.5625 L -0.203125 1.5 L -0.109375 0.71875 L 0.40625 0.71875 C 1.03125 0.71875 1.34375 0.390625 1.34375 -0.265625 L 1.34375 -6.4375 L 0.453125 -6.640625 Z M 0.453125 -7.203125 "/></g></g></g><g fill="#e1bf98" fill-opacity="1"><g transform="translate(488.250551, 183.116099)"><g><path d="M 0.046875 0 L 0.046875 -0.625 L 0.90625 -0.8125 L 3.265625 -7.203125 L 4.3125 -7.265625 L 6.609375 -0.8125 L 7.46875 -0.625 L 7.46875 0 L 4.46875 0 L 4.46875 -0.625 L 5.421875 -0.8125 L 5.03125 -1.96875 L 2.328125 -1.96875 L 1.9375 -0.8125 L 2.90625 -0.625 L 2.90625 0 Z M 3.703125 -5.921875 L 2.609375 -2.796875 L 4.75 -2.796875 Z M 3.703125 -5.921875 "/></g></g></g></svg>