<svg xmlns="http://www.w3.org/2000/svg" xmlns:xlink="http://www.w3.org/1999/xlink" width="120" zoomAndPan="magnify" viewBox="0 0 90 30.000001" height="40" preserveAspectRatio="xMidYMid meet" version="1.0"><defs><g/></defs><g fill="#eeeae0" fill-opacity="1"><g transform="translate(33.227386, 20.34406)"><g><path d="M 1.9375 0.03125 L 0.359375 -2.015625 L 0.359375 -0.5625 C 0.359375 -0.4375 0.367188 -0.335938 0.390625 -0.265625 C 0.410156 -0.191406 0.4375 -0.140625 0.46875 -0.109375 C 0.5 -0.078125 0.539062 -0.0546875 0.59375 -0.046875 L 0.59375 0 L 0.171875 0 L 0.171875 -0.046875 C 0.222656 -0.0546875 0.257812 -0.0859375 0.28125 -0.140625 C 0.300781 -0.191406 0.3125 -0.285156 0.3125 -0.421875 L 0.3125 -1.921875 C 0.3125 -2.054688 0.296875 -2.148438 0.265625 -2.203125 C 0.242188 -2.253906 0.203125 -2.285156 0.140625 -2.296875 L 0.140625 -2.34375 L 0.46875 -2.34375 L 1.921875 -0.453125 L 1.921875 -1.78125 C 1.921875 -1.90625 1.910156 -2.003906 1.890625 -2.078125 C 1.878906 -2.148438 1.851562 -2.203125 1.8125 -2.234375 C 1.78125 -2.265625 1.738281 -2.285156 1.6875 -2.296875 L 1.6875 -2.34375 L 2.109375 -2.34375 L 2.109375 -2.296875 C 2.054688 -2.285156 2.019531 -2.253906 2 -2.203125 C 1.988281 -2.148438 1.984375 -2.054688 1.984375 -1.921875 L 1.984375 0.03125 Z M 1.9375 0.03125 "/></g></g></g><g fill="#eeeae0" fill-opacity="1"><g transform="translate(35.997157, 20.34406)"><g><path d="M 1.359375 0.03125 C 1.222656 0.03125 1.082031 0.0078125 0.9375 -0.03125 C 0.800781 -0.0820312 0.671875 -0.15625 0.546875 -0.25 C 0.429688 -0.351562 0.335938 -0.476562 0.265625 -0.625 C 0.203125 -0.78125 0.171875 -0.960938 0.171875 -1.171875 C 0.171875 -1.398438 0.21875 -1.601562 0.3125 -1.78125 C 0.414062 -1.96875 0.554688 -2.113281 0.734375 -2.21875 C 0.921875 -2.320312 1.128906 -2.375 1.359375 -2.375 C 1.503906 -2.375 1.644531 -2.347656 1.78125 -2.296875 C 1.925781 -2.242188 2.054688 -2.164062 2.171875 -2.0625 C 2.285156 -1.96875 2.375 -1.84375 2.4375 -1.6875 C 2.507812 -1.539062 2.546875 -1.363281 2.546875 -1.15625 C 2.546875 -0.945312 2.507812 -0.769531 2.4375 -0.625 C 2.375 -0.476562 2.285156 -0.351562 2.171875 -0.25 C 2.054688 -0.15625 1.925781 -0.0820312 1.78125 -0.03125 C 1.644531 0.0078125 1.503906 0.03125 1.359375 0.03125 Z M 0.4375 -1.375 C 0.445312 -1.195312 0.476562 -1.03125 0.53125 -0.875 C 0.582031 -0.71875 0.65625 -0.578125 0.75 -0.453125 C 0.851562 -0.328125 0.96875 -0.226562 1.09375 -0.15625 C 1.21875 -0.0820312 1.351562 -0.046875 1.5 -0.046875 C 1.675781 -0.046875 1.820312 -0.0820312 1.9375 -0.15625 C 2.0625 -0.238281 2.148438 -0.347656 2.203125 -0.484375 C 2.265625 -0.617188 2.289062 -0.769531 2.28125 -0.9375 C 2.28125 -1.113281 2.25 -1.28125 2.1875 -1.4375 C 2.132812 -1.601562 2.0625 -1.75 1.96875 -1.875 C 1.875 -2 1.765625 -2.097656 1.640625 -2.171875 C 1.515625 -2.253906 1.378906 -2.296875 1.234375 -2.296875 C 1.054688 -2.296875 0.90625 -2.253906 0.78125 -2.171875 C 0.664062 -2.097656 0.578125 -1.988281 0.515625 -1.84375 C 0.460938 -1.707031 0.4375 -1.550781 0.4375 -1.375 Z M 0.4375 -1.375 "/></g></g></g><g fill="#eeeae0" fill-opacity="1"><g transform="translate(39.238012, 20.34406)"><g><path d="M 1.1875 -1.953125 C 1.144531 -2.078125 1.101562 -2.160156 1.0625 -2.203125 C 1.019531 -2.253906 0.976562 -2.285156 0.9375 -2.296875 L 0.9375 -2.34375 L 1.453125 -2.34375 L 1.453125 -2.296875 C 1.398438 -2.285156 1.378906 -2.253906 1.390625 -2.203125 C 1.398438 -2.160156 1.429688 -2.078125 1.484375 -1.953125 L 1.65625 -1.515625 L 1.828125 -1.9375 C 1.867188 -2.050781 1.882812 -2.132812 1.875 -2.1875 C 1.863281 -2.25 1.832031 -2.285156 1.78125 -2.296875 L 1.78125 -2.34375 L 2.15625 -2.34375 L 2.15625 -2.296875 C 2.101562 -2.285156 2.054688 -2.253906 2.015625 -2.203125 C 1.972656 -2.160156 1.925781 -2.070312 1.875 -1.9375 L 1.703125 -1.4375 L 2.140625 -0.34375 L 2.734375 -1.9375 C 2.804688 -2.15625 2.785156 -2.273438 2.671875 -2.296875 L 2.671875 -2.34375 L 3.046875 -2.34375 L 3.046875 -2.296875 C 3.003906 -2.285156 2.960938 -2.253906 2.921875 -2.203125 C 2.878906 -2.160156 2.832031 -2.070312 2.78125 -1.9375 L 2.09375 0 L 2 0 L 1.53125 -1.140625 L 1.0625 0 L 0.96875 0 L 0.234375 -1.9375 C 0.179688 -2.070312 0.132812 -2.160156 0.09375 -2.203125 C 0.0625 -2.253906 0.0234375 -2.285156 -0.015625 -2.296875 L -0.015625 -2.34375 L 0.5 -2.34375 L 0.5 -2.296875 C 0.445312 -2.285156 0.425781 -2.253906 0.4375 -2.203125 C 0.445312 -2.160156 0.472656 -2.070312 0.515625 -1.9375 L 1.140625 -0.328125 L 1.5 -1.203125 Z M 1.1875 -1.953125 "/></g></g></g><g fill="#eeeae0" fill-opacity="1"><g transform="translate(42.792923, 20.34406)"><g><path d="M -0.0625 0 L -0.0625 -0.046875 C -0.0078125 -0.0546875 0.0351562 -0.0820312 0.078125 -0.125 C 0.117188 -0.175781 0.164062 -0.265625 0.21875 -0.390625 L 0.875 -2.03125 C 0.894531 -2.082031 0.894531 -2.132812 0.875 -2.1875 L 0.84375 -2.25 L 1.09375 -2.375 L 1.921875 -0.390625 C 1.972656 -0.265625 2.019531 -0.175781 2.0625 -0.125 C 2.101562 -0.0820312 2.140625 -0.0546875 2.171875 -0.046875 L 2.171875 0 L 1.65625 0 L 1.65625 -0.046875 C 1.707031 -0.0546875 1.726562 -0.0820312 1.71875 -0.125 C 1.707031 -0.175781 1.675781 -0.265625 1.625 -0.390625 L 1.421875 -0.875 L 0.484375 -0.875 L 0.28125 -0.390625 C 0.195312 -0.179688 0.210938 -0.0664062 0.328125 -0.046875 L 0.328125 0 Z M 0.5 -0.9375 L 1.40625 -0.9375 L 0.9375 -2.03125 Z M 0.5 -0.9375 "/></g></g></g><g fill="#eeeae0" fill-opacity="1"><g transform="translate(45.459121, 20.34406)"><g/></g></g><g fill="#eeeae0" fill-opacity="1"><g transform="translate(46.685337, 20.34406)"><g><path d="M 0.171875 0 L 0.171875 -0.046875 C 0.222656 -0.0546875 0.253906 -0.0859375 0.265625 -0.140625 C 0.285156 -0.191406 0.296875 -0.285156 0.296875 -0.421875 L 0.296875 -1.921875 C 0.296875 -2.054688 0.285156 -2.148438 0.265625 -2.203125 C 0.253906 -2.253906 0.222656 -2.285156 0.171875 -2.296875 L 0.171875 -2.34375 L 0.96875 -2.34375 C 1.195312 -2.34375 1.390625 -2.304688 1.546875 -2.234375 C 1.710938 -2.171875 1.847656 -2.082031 1.953125 -1.96875 C 2.054688 -1.863281 2.128906 -1.742188 2.171875 -1.609375 C 2.222656 -1.484375 2.25 -1.351562 2.25 -1.21875 C 2.25 -0.976562 2.195312 -0.765625 2.09375 -0.578125 C 2 -0.398438 1.863281 -0.257812 1.6875 -0.15625 C 1.507812 -0.0507812 1.296875 0 1.046875 0 Z M 0.578125 -0.296875 C 0.578125 -0.210938 0.585938 -0.148438 0.609375 -0.109375 C 0.640625 -0.0664062 0.703125 -0.046875 0.796875 -0.046875 L 1.046875 -0.046875 C 1.335938 -0.046875 1.5625 -0.128906 1.71875 -0.296875 C 1.875 -0.472656 1.953125 -0.734375 1.953125 -1.078125 C 1.953125 -1.304688 1.90625 -1.507812 1.8125 -1.6875 C 1.726562 -1.875 1.601562 -2.019531 1.4375 -2.125 C 1.269531 -2.238281 1.0625 -2.296875 0.8125 -2.296875 L 0.578125 -2.296875 Z M 0.578125 -0.296875 "/></g></g></g><g fill="#eeeae0" fill-opacity="1"><g transform="translate(49.632181, 20.34406)"><g><path d="M 1.875 0.015625 C 1.789062 0.015625 1.722656 0 1.671875 -0.03125 C 1.617188 -0.0703125 1.570312 -0.132812 1.53125 -0.21875 C 1.5 -0.300781 1.460938 -0.398438 1.421875 -0.515625 C 1.367188 -0.628906 1.320312 -0.726562 1.28125 -0.8125 C 1.25 -0.90625 1.210938 -0.976562 1.171875 -1.03125 C 1.140625 -1.09375 1.09375 -1.132812 1.03125 -1.15625 C 0.96875 -1.1875 0.890625 -1.203125 0.796875 -1.203125 L 0.578125 -1.203125 L 0.578125 -0.421875 C 0.578125 -0.285156 0.585938 -0.191406 0.609375 -0.140625 C 0.628906 -0.0859375 0.664062 -0.0546875 0.71875 -0.046875 L 0.71875 0 L 0.171875 0 L 0.171875 -0.046875 C 0.222656 -0.0546875 0.253906 -0.0859375 0.265625 -0.140625 C 0.285156 -0.191406 0.296875 -0.285156 0.296875 -0.421875 L 0.296875 -1.921875 C 0.296875 -2.054688 0.285156 -2.148438 0.265625 -2.203125 C 0.253906 -2.253906 0.222656 -2.285156 0.171875 -2.296875 L 0.171875 -2.34375 L 0.828125 -2.34375 C 1.054688 -2.34375 1.234375 -2.316406 1.359375 -2.265625 C 1.484375 -2.222656 1.570312 -2.160156 1.625 -2.078125 C 1.675781 -2.003906 1.703125 -1.914062 1.703125 -1.8125 C 1.703125 -1.65625 1.644531 -1.519531 1.53125 -1.40625 C 1.425781 -1.300781 1.265625 -1.238281 1.046875 -1.21875 C 1.148438 -1.207031 1.234375 -1.179688 1.296875 -1.140625 C 1.359375 -1.109375 1.410156 -1.066406 1.453125 -1.015625 C 1.492188 -0.960938 1.53125 -0.894531 1.5625 -0.8125 C 1.601562 -0.738281 1.644531 -0.648438 1.6875 -0.546875 C 1.738281 -0.410156 1.78125 -0.304688 1.8125 -0.234375 C 1.851562 -0.160156 1.890625 -0.109375 1.921875 -0.078125 C 1.953125 -0.046875 1.984375 -0.03125 2.015625 -0.03125 C 2.035156 -0.03125 2.046875 -0.03125 2.046875 -0.03125 C 2.054688 -0.03125 2.066406 -0.0351562 2.078125 -0.046875 L 2.078125 0 C 2.054688 0.0078125 2.023438 0.015625 1.984375 0.015625 C 1.941406 0.015625 1.90625 0.015625 1.875 0.015625 Z M 0.578125 -1.25 L 0.859375 -1.25 C 1.046875 -1.25 1.1875 -1.296875 1.28125 -1.390625 C 1.375 -1.484375 1.421875 -1.597656 1.421875 -1.734375 C 1.421875 -1.835938 1.394531 -1.929688 1.34375 -2.015625 C 1.300781 -2.097656 1.226562 -2.164062 1.125 -2.21875 C 1.03125 -2.269531 0.898438 -2.296875 0.734375 -2.296875 C 0.710938 -2.296875 0.6875 -2.289062 0.65625 -2.28125 C 0.632812 -2.28125 0.609375 -2.28125 0.578125 -2.28125 Z M 0.578125 -1.25 "/></g></g></g><g fill="#eeeae0" fill-opacity="1"><g transform="translate(52.20149, 20.34406)"><g><path d="M 1.359375 0.03125 C 1.222656 0.03125 1.082031 0.0078125 0.9375 -0.03125 C 0.800781 -0.0820312 0.671875 -0.15625 0.546875 -0.25 C 0.429688 -0.351562 0.335938 -0.476562 0.265625 -0.625 C 0.203125 -0.78125 0.171875 -0.960938 0.171875 -1.171875 C 0.171875 -1.398438 0.21875 -1.601562 0.3125 -1.78125 C 0.414062 -1.96875 0.554688 -2.113281 0.734375 -2.21875 C 0.921875 -2.320312 1.128906 -2.375 1.359375 -2.375 C 1.503906 -2.375 1.644531 -2.347656 1.78125 -2.296875 C 1.925781 -2.242188 2.054688 -2.164062 2.171875 -2.0625 C 2.285156 -1.96875 2.375 -1.84375 2.4375 -1.6875 C 2.507812 -1.539062 2.546875 -1.363281 2.546875 -1.15625 C 2.546875 -0.945312 2.507812 -0.769531 2.4375 -0.625 C 2.375 -0.476562 2.285156 -0.351562 2.171875 -0.25 C 2.054688 -0.15625 1.925781 -0.0820312 1.78125 -0.03125 C 1.644531 0.0078125 1.503906 0.03125 1.359375 0.03125 Z M 0.4375 -1.375 C 0.445312 -1.195312 0.476562 -1.03125 0.53125 -0.875 C 0.582031 -0.71875 0.65625 -0.578125 0.75 -0.453125 C 0.851562 -0.328125 0.96875 -0.226562 1.09375 -0.15625 C 1.21875 -0.0820312 1.351562 -0.046875 1.5 -0.046875 C 1.675781 -0.046875 1.820312 -0.0820312 1.9375 -0.15625 C 2.0625 -0.238281 2.148438 -0.347656 2.203125 -0.484375 C 2.265625 -0.617188 2.289062 -0.769531 2.28125 -0.9375 C 2.28125 -1.113281 2.25 -1.28125 2.1875 -1.4375 C 2.132812 -1.601562 2.0625 -1.75 1.96875 -1.875 C 1.875 -2 1.765625 -2.097656 1.640625 -2.171875 C 1.515625 -2.253906 1.378906 -2.296875 1.234375 -2.296875 C 1.054688 -2.296875 0.90625 -2.253906 0.78125 -2.171875 C 0.664062 -2.097656 0.578125 -1.988281 0.515625 -1.84375 C 0.460938 -1.707031 0.4375 -1.550781 0.4375 -1.375 Z M 0.4375 -1.375 "/></g></g></g><g fill="#eeeae0" fill-opacity="1"><g transform="translate(55.442346, 20.34406)"><g><path d="M 1.40625 0.03125 C 1.15625 0.03125 0.9375 -0.015625 0.75 -0.109375 C 0.570312 -0.210938 0.429688 -0.351562 0.328125 -0.53125 C 0.222656 -0.707031 0.171875 -0.914062 0.171875 -1.15625 C 0.171875 -1.320312 0.195312 -1.476562 0.25 -1.625 C 0.3125 -1.769531 0.394531 -1.894531 0.5 -2 C 0.613281 -2.113281 0.742188 -2.203125 0.890625 -2.265625 C 1.046875 -2.328125 1.210938 -2.359375 1.390625 -2.359375 C 1.492188 -2.359375 1.59375 -2.347656 1.6875 -2.328125 C 1.78125 -2.316406 1.867188 -2.296875 1.953125 -2.265625 C 2.035156 -2.242188 2.097656 -2.21875 2.140625 -2.1875 L 2.15625 -1.796875 L 2.109375 -1.78125 C 2.078125 -1.882812 2.019531 -1.972656 1.9375 -2.046875 C 1.851562 -2.128906 1.753906 -2.191406 1.640625 -2.234375 C 1.535156 -2.273438 1.421875 -2.296875 1.296875 -2.296875 C 1.128906 -2.296875 0.984375 -2.257812 0.859375 -2.1875 C 0.734375 -2.125 0.632812 -2.019531 0.5625 -1.875 C 0.488281 -1.738281 0.445312 -1.566406 0.4375 -1.359375 C 0.4375 -1.203125 0.457031 -1.046875 0.5 -0.890625 C 0.550781 -0.734375 0.625 -0.585938 0.71875 -0.453125 C 0.8125 -0.328125 0.921875 -0.222656 1.046875 -0.140625 C 1.179688 -0.0664062 1.335938 -0.03125 1.515625 -0.03125 C 1.640625 -0.03125 1.75 -0.0546875 1.84375 -0.109375 C 1.945312 -0.171875 2.019531 -0.242188 2.0625 -0.328125 L 2.0625 -0.671875 C 2.0625 -0.773438 2.050781 -0.847656 2.03125 -0.890625 C 2.007812 -0.941406 1.960938 -0.976562 1.890625 -1 L 1.890625 -1.046875 L 2.328125 -1.046875 L 2.328125 -0.40625 C 2.265625 -0.320312 2.179688 -0.242188 2.078125 -0.171875 C 1.972656 -0.109375 1.863281 -0.0546875 1.75 -0.015625 C 1.632812 0.015625 1.519531 0.03125 1.40625 0.03125 Z M 1.40625 0.03125 "/></g></g></g><g fill="#eeeae0" fill-opacity="1"><g transform="translate(58.445987, 20.34406)"><g><path d="M -0.0625 0 L -0.0625 -0.046875 C -0.0078125 -0.0546875 0.0351562 -0.0820312 0.078125 -0.125 C 0.117188 -0.175781 0.164062 -0.265625 0.21875 -0.390625 L 0.875 -2.03125 C 0.894531 -2.082031 0.894531 -2.132812 0.875 -2.1875 L 0.84375 -2.25 L 1.09375 -2.375 L 1.921875 -0.390625 C 1.972656 -0.265625 2.019531 -0.175781 2.0625 -0.125 C 2.101562 -0.0820312 2.140625 -0.0546875 2.171875 -0.046875 L 2.171875 0 L 1.65625 0 L 1.65625 -0.046875 C 1.707031 -0.0546875 1.726562 -0.0820312 1.71875 -0.125 C 1.707031 -0.175781 1.675781 -0.265625 1.625 -0.390625 L 1.421875 -0.875 L 0.484375 -0.875 L 0.28125 -0.390625 C 0.195312 -0.179688 0.210938 -0.0664062 0.328125 -0.046875 L 0.328125 0 Z M 0.5 -0.9375 L 1.40625 -0.9375 L 0.9375 -2.03125 Z M 0.5 -0.9375 "/></g></g></g><g fill="#e1bf98" fill-opacity="1"><g transform="translate(35.198675, 23.496519)"><g><path d="M 0.421875 -0.078125 L 0.421875 0 L 0.046875 0 L 0.046875 -0.078125 L 0.15625 -0.109375 L 0.15625 -0.796875 L 0.046875 -0.8125 L 0.046875 -0.890625 L 0.421875 -0.890625 L 0.421875 -0.8125 L 0.296875 -0.796875 L 0.296875 -0.515625 L 0.40625 -0.515625 L 0.640625 -0.890625 L 0.84375 -0.890625 L 0.84375 -0.8125 L 0.71875 -0.796875 L 0.53125 -0.46875 L 0.78125 -0.109375 L 0.890625 -0.078125 L 0.890625 0 L 0.53125 0 L 0.53125 -0.078125 L 0.640625 -0.109375 L 0.421875 -0.40625 L 0.296875 -0.40625 L 0.296875 -0.109375 Z M 0.421875 -0.078125 "/></g></g></g><g fill="#e1bf98" fill-opacity="1"><g transform="translate(36.459493, 23.496519)"><g><path d="M 0 0 L 0 -0.078125 L 0.109375 -0.09375 L 0.40625 -0.890625 L 0.53125 -0.890625 L 0.8125 -0.09375 L 0.921875 -0.078125 L 0.921875 0 L 0.546875 0 L 0.546875 -0.078125 L 0.671875 -0.09375 L 0.625 -0.25 L 0.28125 -0.25 L 0.234375 -0.09375 L 0.359375 -0.078125 L 0.359375 0 Z M 0.453125 -0.734375 L 0.328125 -0.34375 L 0.59375 -0.34375 Z M 0.453125 -0.734375 "/></g></g></g><g fill="#e1bf98" fill-opacity="1"><g transform="translate(37.739488, 23.496519)"><g><path d="M 0.5625 -0.078125 L 0.5625 0 L 0.171875 0 L 0.171875 -0.078125 L 0.296875 -0.109375 L 0.296875 -0.796875 L 0.125 -0.796875 L 0.09375 -0.671875 L 0.015625 -0.671875 L 0.015625 -0.890625 L 0.71875 -0.890625 L 0.71875 -0.671875 L 0.625 -0.671875 L 0.59375 -0.796875 L 0.421875 -0.796875 L 0.421875 -0.109375 Z M 0.5625 -0.078125 "/></g></g></g><g fill="#e1bf98" fill-opacity="1"><g transform="translate(38.814925, 23.496519)"><g><path d="M 0 0 L 0 -0.078125 L 0.109375 -0.09375 L 0.40625 -0.890625 L 0.53125 -0.890625 L 0.8125 -0.09375 L 0.921875 -0.078125 L 0.921875 0 L 0.546875 0 L 0.546875 -0.078125 L 0.671875 -0.09375 L 0.625 -0.25 L 0.28125 -0.25 L 0.234375 -0.09375 L 0.359375 -0.078125 L 0.359375 0 Z M 0.453125 -0.734375 L 0.328125 -0.34375 L 0.59375 -0.34375 Z M 0.453125 -0.734375 "/></g></g></g><g fill="#e1bf98" fill-opacity="1"><g transform="translate(40.094921, 23.496519)"><g><path d="M 0.046875 0 L 0.046875 -0.078125 L 0.15625 -0.109375 L 0.15625 -0.796875 L 0.046875 -0.8125 L 0.046875 -0.890625 L 0.4375 -0.890625 C 0.53125 -0.890625 0.597656 -0.867188 0.640625 -0.828125 C 0.691406 -0.796875 0.71875 -0.742188 0.71875 -0.671875 C 0.71875 -0.546875 0.664062 -0.460938 0.5625 -0.421875 C 0.582031 -0.398438 0.609375 -0.359375 0.640625 -0.296875 L 0.734375 -0.09375 L 0.828125 -0.078125 L 0.828125 0 L 0.640625 0 L 0.53125 -0.234375 C 0.5 -0.296875 0.472656 -0.335938 0.453125 -0.359375 C 0.429688 -0.378906 0.398438 -0.390625 0.359375 -0.390625 L 0.296875 -0.390625 L 0.296875 -0.109375 L 0.40625 -0.078125 L 0.40625 0 Z M 0.296875 -0.796875 L 0.296875 -0.484375 L 0.390625 -0.484375 C 0.453125 -0.484375 0.5 -0.5 0.53125 -0.53125 C 0.570312 -0.5625 0.59375 -0.597656 0.59375 -0.640625 C 0.59375 -0.691406 0.578125 -0.726562 0.546875 -0.75 C 0.515625 -0.78125 0.472656 -0.796875 0.421875 -0.796875 Z M 0.296875 -0.796875 "/></g></g></g><g fill="#e1bf98" fill-opacity="1"><g transform="translate(41.27903, 23.496519)"><g><path d="M 0.09375 -0.890625 L 0.734375 -0.890625 L 0.734375 -0.8125 L 0.21875 -0.109375 L 0.625 -0.109375 L 0.640625 -0.234375 L 0.734375 -0.234375 L 0.734375 0 L 0.046875 0 L 0.046875 -0.09375 L 0.5625 -0.796875 L 0.203125 -0.796875 L 0.171875 -0.671875 L 0.09375 -0.671875 Z M 0.09375 -0.890625 "/></g></g></g><g fill="#e1bf98" fill-opacity="1"><g transform="translate(42.418391, 23.496519)"><g><path d="M 0.234375 0 L 0.234375 -0.078125 L 0.34375 -0.109375 L 0.34375 -0.328125 L 0.09375 -0.796875 L 0.015625 -0.8125 L 0.015625 -0.890625 L 0.328125 -0.890625 L 0.328125 -0.8125 L 0.25 -0.796875 L 0.421875 -0.4375 L 0.609375 -0.796875 L 0.5 -0.8125 L 0.5 -0.890625 L 0.8125 -0.890625 L 0.8125 -0.8125 L 0.734375 -0.796875 L 0.484375 -0.328125 L 0.484375 -0.109375 L 0.59375 -0.078125 L 0.59375 0 Z M 0.234375 0 "/></g></g></g><g fill="#e1bf98" fill-opacity="1"><g transform="translate(43.596107, 23.496519)"><g><path d="M 0.703125 0 L 0.28125 -0.703125 L 0.28125 -0.109375 L 0.390625 -0.078125 L 0.390625 0 L 0.046875 0 L 0.046875 -0.078125 L 0.15625 -0.109375 L 0.15625 -0.796875 L 0.046875 -0.8125 L 0.046875 -0.890625 L 0.328125 -0.890625 L 0.75 -0.1875 L 0.75 -0.796875 L 0.640625 -0.8125 L 0.640625 -0.890625 L 0.96875 -0.890625 L 0.96875 -0.8125 L 0.859375 -0.796875 L 0.859375 0 Z M 0.703125 0 "/></g></g></g><g fill="#e1bf98" fill-opacity="1"><g transform="translate(44.959203, 23.496519)"><g><path d="M 0 0 L 0 -0.078125 L 0.109375 -0.09375 L 0.40625 -0.890625 L 0.53125 -0.890625 L 0.8125 -0.09375 L 0.921875 -0.078125 L 0.921875 0 L 0.546875 0 L 0.546875 -0.078125 L 0.671875 -0.09375 L 0.625 -0.25 L 0.28125 -0.25 L 0.234375 -0.09375 L 0.359375 -0.078125 L 0.359375 0 Z M 0.453125 -0.734375 L 0.328125 -0.34375 L 0.59375 -0.34375 Z M 0.453125 -0.734375 "/></g></g></g><g fill="#e1bf98" fill-opacity="1"><g transform="translate(46.239198, 23.496519)"><g/></g></g><g fill="#e1bf98" fill-opacity="1"><g transform="translate(46.886344, 23.496519)"><g><path d="M 0.5625 -0.078125 L 0.5625 0 L 0.171875 0 L 0.171875 -0.078125 L 0.296875 -0.109375 L 0.296875 -0.796875 L 0.125 -0.796875 L 0.09375 -0.671875 L 0.015625 -0.671875 L 0.015625 -0.890625 L 0.71875 -0.890625 L 0.71875 -0.671875 L 0.625 -0.671875 L 0.59375 -0.796875 L 0.421875 -0.796875 L 0.421875 -0.109375 Z M 0.5625 -0.078125 "/></g></g></g><g fill="#e1bf98" fill-opacity="1"><g transform="translate(47.961782, 23.496519)"><g><path d="M 0.078125 -0.4375 C 0.078125 -0.507812 0.0859375 -0.570312 0.109375 -0.625 C 0.128906 -0.6875 0.15625 -0.738281 0.1875 -0.78125 C 0.226562 -0.820312 0.269531 -0.851562 0.3125 -0.875 C 0.363281 -0.894531 0.421875 -0.90625 0.484375 -0.90625 C 0.546875 -0.90625 0.601562 -0.894531 0.65625 -0.875 C 0.707031 -0.851562 0.75 -0.820312 0.78125 -0.78125 C 0.820312 -0.75 0.847656 -0.703125 0.859375 -0.640625 C 0.878906 -0.585938 0.890625 -0.523438 0.890625 -0.453125 C 0.890625 -0.390625 0.878906 -0.328125 0.859375 -0.265625 C 0.835938 -0.210938 0.804688 -0.164062 0.765625 -0.125 C 0.734375 -0.0820312 0.691406 -0.046875 0.640625 -0.015625 C 0.585938 0.00390625 0.53125 0.015625 0.46875 0.015625 C 0.34375 0.015625 0.242188 -0.0195312 0.171875 -0.09375 C 0.109375 -0.175781 0.078125 -0.289062 0.078125 -0.4375 Z M 0.484375 -0.796875 C 0.304688 -0.796875 0.21875 -0.679688 0.21875 -0.453125 C 0.21875 -0.210938 0.300781 -0.09375 0.46875 -0.09375 C 0.5625 -0.09375 0.628906 -0.125 0.671875 -0.1875 C 0.722656 -0.25 0.75 -0.335938 0.75 -0.453125 C 0.75 -0.679688 0.660156 -0.796875 0.484375 -0.796875 Z M 0.484375 -0.796875 "/></g></g></g><g fill="#e1bf98" fill-opacity="1"><g transform="translate(49.280131, 23.496519)"><g><path d="M 0.421875 -0.078125 L 0.421875 0 L 0.046875 0 L 0.046875 -0.078125 L 0.15625 -0.109375 L 0.15625 -0.796875 L 0.046875 -0.8125 L 0.046875 -0.890625 L 0.421875 -0.890625 L 0.421875 -0.8125 L 0.296875 -0.796875 L 0.296875 -0.515625 L 0.40625 -0.515625 L 0.640625 -0.890625 L 0.84375 -0.890625 L 0.84375 -0.8125 L 0.71875 -0.796875 L 0.53125 -0.46875 L 0.78125 -0.109375 L 0.890625 -0.078125 L 0.890625 0 L 0.53125 0 L 0.53125 -0.078125 L 0.640625 -0.109375 L 0.421875 -0.40625 L 0.296875 -0.40625 L 0.296875 -0.109375 Z M 0.421875 -0.078125 "/></g></g></g><g fill="#e1bf98" fill-opacity="1"><g transform="translate(50.540949, 23.496519)"><g><path d="M 0 0 L 0 -0.078125 L 0.109375 -0.09375 L 0.40625 -0.890625 L 0.53125 -0.890625 L 0.8125 -0.09375 L 0.921875 -0.078125 L 0.921875 0 L 0.546875 0 L 0.546875 -0.078125 L 0.671875 -0.09375 L 0.625 -0.25 L 0.28125 -0.25 L 0.234375 -0.09375 L 0.359375 -0.078125 L 0.359375 0 Z M 0.453125 -0.734375 L 0.328125 -0.34375 L 0.59375 -0.34375 Z M 0.453125 -0.734375 "/></g></g></g><g fill="#e1bf98" fill-opacity="1"><g transform="translate(51.820945, 23.496519)"><g><path d="M 0.0625 -0.890625 L 0.40625 -0.890625 L 0.40625 -0.8125 L 0.296875 -0.796875 L 0.296875 -0.0625 C 0.296875 0.0195312 0.273438 0.0820312 0.234375 0.125 C 0.191406 0.164062 0.132812 0.1875 0.0625 0.1875 L -0.03125 0.1875 L -0.015625 0.09375 L 0.046875 0.09375 C 0.128906 0.09375 0.171875 0.0507812 0.171875 -0.03125 L 0.171875 -0.796875 L 0.0625 -0.8125 Z M 0.0625 -0.890625 "/></g></g></g><g fill="#e1bf98" fill-opacity="1"><g transform="translate(52.633014, 23.496519)"><g/></g></g><g fill="#e1bf98" fill-opacity="1"><g transform="translate(53.28016, 23.496519)"><g><path d="M 0.671875 -0.625 L 0.625 -0.78125 C 0.582031 -0.789062 0.53125 -0.796875 0.46875 -0.796875 C 0.382812 -0.796875 0.316406 -0.765625 0.265625 -0.703125 C 0.222656 -0.640625 0.203125 -0.550781 0.203125 -0.4375 C 0.203125 -0.320312 0.222656 -0.238281 0.265625 -0.1875 C 0.316406 -0.132812 0.382812 -0.109375 0.46875 -0.109375 C 0.488281 -0.109375 0.507812 -0.109375 0.53125 -0.109375 C 0.550781 -0.109375 0.570312 -0.113281 0.59375 -0.125 C 0.613281 -0.132812 0.632812 -0.144531 0.65625 -0.15625 C 0.675781 -0.164062 0.691406 -0.171875 0.703125 -0.171875 L 0.734375 -0.203125 L 0.78125 -0.125 C 0.757812 -0.101562 0.738281 -0.0820312 0.71875 -0.0625 C 0.695312 -0.0507812 0.671875 -0.0351562 0.640625 -0.015625 C 0.609375 -0.00390625 0.578125 0 0.546875 0 C 0.515625 0.0078125 0.488281 0.015625 0.46875 0.015625 C 0.332031 0.015625 0.226562 -0.0195312 0.15625 -0.09375 C 0.0820312 -0.175781 0.046875 -0.289062 0.046875 -0.4375 C 0.046875 -0.507812 0.0546875 -0.570312 0.078125 -0.625 C 0.0976562 -0.6875 0.125 -0.738281 0.15625 -0.78125 C 0.195312 -0.820312 0.242188 -0.851562 0.296875 -0.875 C 0.347656 -0.894531 0.410156 -0.90625 0.484375 -0.90625 C 0.503906 -0.90625 0.523438 -0.90625 0.546875 -0.90625 C 0.566406 -0.90625 0.585938 -0.898438 0.609375 -0.890625 C 0.628906 -0.890625 0.648438 -0.882812 0.671875 -0.875 C 0.691406 -0.875 0.710938 -0.867188 0.734375 -0.859375 L 0.765625 -0.84375 L 0.765625 -0.625 Z M 0.671875 -0.625 "/></g></g></g><g fill="#e1bf98" fill-opacity="1"><g transform="translate(54.457876, 23.496519)"><g><path d="M 0.09375 -0.890625 L 0.734375 -0.890625 L 0.734375 -0.8125 L 0.21875 -0.109375 L 0.625 -0.109375 L 0.640625 -0.234375 L 0.734375 -0.234375 L 0.734375 0 L 0.046875 0 L 0.046875 -0.09375 L 0.5625 -0.796875 L 0.203125 -0.796875 L 0.171875 -0.671875 L 0.09375 -0.671875 Z M 0.09375 -0.890625 "/></g></g></g><g fill="#e1bf98" fill-opacity="1"><g transform="translate(55.597237, 23.496519)"><g><path d="M 0 0 L 0 -0.078125 L 0.109375 -0.09375 L 0.40625 -0.890625 L 0.53125 -0.890625 L 0.8125 -0.09375 L 0.921875 -0.078125 L 0.921875 0 L 0.546875 0 L 0.546875 -0.078125 L 0.671875 -0.09375 L 0.625 -0.25 L 0.28125 -0.25 L 0.234375 -0.09375 L 0.359375 -0.078125 L 0.359375 0 Z M 0.453125 -0.734375 L 0.328125 -0.34375 L 0.59375 -0.34375 Z M 0.453125 -0.734375 "/></g></g></g><g fill="#e1bf98" fill-opacity="1"><g transform="translate(56.877233, 23.496519)"><g><path d="M 0.0625 -0.890625 L 0.40625 -0.890625 L 0.40625 -0.8125 L 0.296875 -0.796875 L 0.296875 -0.0625 C 0.296875 0.0195312 0.273438 0.0820312 0.234375 0.125 C 0.191406 0.164062 0.132812 0.1875 0.0625 0.1875 L -0.03125 0.1875 L -0.015625 0.09375 L 0.046875 0.09375 C 0.128906 0.09375 0.171875 0.0507812 0.171875 -0.03125 L 0.171875 -0.796875 L 0.0625 -0.8125 Z M 0.0625 -0.890625 "/></g></g></g><g fill="#e1bf98" fill-opacity="1"><g transform="translate(57.689302, 23.496519)"><g><path d="M 0 0 L 0 -0.078125 L 0.109375 -0.09375 L 0.40625 -0.890625 L 0.53125 -0.890625 L 0.8125 -0.09375 L 0.921875 -0.078125 L 0.921875 0 L 0.546875 0 L 0.546875 -0.078125 L 0.671875 -0.09375 L 0.625 -0.25 L 0.28125 -0.25 L 0.234375 -0.09375 L 0.359375 -0.078125 L 0.359375 0 Z M 0.453125 -0.734375 L 0.328125 -0.34375 L 0.59375 -0.34375 Z M 0.453125 -0.734375 "/></g></g></g></svg>