<svg xmlns="http://www.w3.org/2000/svg" xmlns:xlink="http://www.w3.org/1999/xlink" width="500" zoomAndPan="magnify" viewBox="0 0 375 374.999991" height="500" preserveAspectRatio="xMidYMid meet" version="1.0"><defs><g/></defs><g fill="#fbfaf4" fill-opacity="1"><g transform="translate(95.021786, 285.457413)"><g><path d="M 14.234375 0.203125 L 2.65625 -14.875 L 2.65625 -4.109375 C 2.65625 -3.171875 2.71875 -2.445312 2.84375 -1.9375 C 2.976562 -1.4375 3.171875 -1.066406 3.421875 -0.828125 C 3.679688 -0.585938 3.992188 -0.414062 4.359375 -0.3125 L 4.359375 0 L 1.28125 0 L 1.28125 -0.3125 C 1.65625 -0.425781 1.910156 -0.671875 2.046875 -1.046875 C 2.191406 -1.429688 2.265625 -2.125 2.265625 -3.125 L 2.265625 -14.09375 C 2.265625 -15.101562 2.171875 -15.789062 1.984375 -16.15625 C 1.804688 -16.53125 1.472656 -16.773438 0.984375 -16.890625 L 0.984375 -17.21875 L 3.390625 -17.21875 L 14.140625 -3.296875 L 14.140625 -13.109375 C 14.140625 -14.046875 14.070312 -14.769531 13.9375 -15.28125 C 13.8125 -15.800781 13.625 -16.175781 13.375 -16.40625 C 13.132812 -16.632812 12.820312 -16.796875 12.4375 -16.890625 L 12.4375 -17.21875 L 15.546875 -17.21875 L 15.546875 -16.890625 C 15.171875 -16.773438 14.910156 -16.53125 14.765625 -16.15625 C 14.628906 -15.789062 14.5625 -15.101562 14.5625 -14.09375 L 14.5625 0.203125 Z M 14.234375 0.203125 "/></g></g></g><g fill="#fbfaf4" fill-opacity="1"><g transform="translate(115.408286, 285.457413)"><g><path d="M 10.03125 0.25 C 8.976562 0.25 7.9375 0.0703125 6.90625 -0.28125 C 5.875 -0.632812 4.929688 -1.175781 4.078125 -1.90625 C 3.222656 -2.632812 2.539062 -3.554688 2.03125 -4.671875 C 1.53125 -5.785156 1.28125 -7.101562 1.28125 -8.625 C 1.28125 -10.320312 1.648438 -11.828125 2.390625 -13.140625 C 3.128906 -14.460938 4.148438 -15.503906 5.453125 -16.265625 C 6.765625 -17.023438 8.289062 -17.40625 10.03125 -17.40625 C 11.0625 -17.40625 12.09375 -17.222656 13.125 -16.859375 C 14.164062 -16.503906 15.109375 -15.960938 15.953125 -15.234375 C 16.796875 -14.503906 17.46875 -13.582031 17.96875 -12.46875 C 18.476562 -11.351562 18.734375 -10.039062 18.734375 -8.53125 C 18.734375 -7.007812 18.476562 -5.695312 17.96875 -4.59375 C 17.46875 -3.5 16.789062 -2.585938 15.9375 -1.859375 C 15.082031 -1.140625 14.140625 -0.609375 13.109375 -0.265625 C 12.085938 0.078125 11.0625 0.25 10.03125 0.25 Z M 3.25 -10.0625 C 3.289062 -8.832031 3.515625 -7.640625 3.921875 -6.484375 C 4.328125 -5.328125 4.875 -4.285156 5.5625 -3.359375 C 6.257812 -2.441406 7.078125 -1.710938 8.015625 -1.171875 C 8.953125 -0.640625 9.96875 -0.375 11.0625 -0.375 C 12.375 -0.375 13.460938 -0.660156 14.328125 -1.234375 C 15.203125 -1.804688 15.847656 -2.585938 16.265625 -3.578125 C 16.679688 -4.566406 16.867188 -5.675781 16.828125 -6.90625 C 16.773438 -8.1875 16.546875 -9.421875 16.140625 -10.609375 C 15.742188 -11.796875 15.203125 -12.859375 14.515625 -13.796875 C 13.828125 -14.734375 13.015625 -15.472656 12.078125 -16.015625 C 11.140625 -16.566406 10.125 -16.84375 9.03125 -16.84375 C 7.78125 -16.84375 6.71875 -16.554688 5.84375 -15.984375 C 4.96875 -15.410156 4.300781 -14.613281 3.84375 -13.59375 C 3.394531 -12.582031 3.195312 -11.40625 3.25 -10.0625 Z M 3.25 -10.0625 "/></g></g></g><g fill="#fbfaf4" fill-opacity="1"><g transform="translate(139.262133, 285.457413)"><g><path d="M 8.78125 -14.3125 C 8.414062 -15.25 8.082031 -15.882812 7.78125 -16.21875 C 7.476562 -16.550781 7.1875 -16.773438 6.90625 -16.890625 L 6.90625 -17.21875 L 10.671875 -17.21875 L 10.671875 -16.890625 C 10.304688 -16.773438 10.15625 -16.550781 10.21875 -16.21875 C 10.289062 -15.882812 10.515625 -15.257812 10.890625 -14.34375 L 12.21875 -11.09375 L 13.40625 -14.28125 C 13.71875 -15.101562 13.847656 -15.722656 13.796875 -16.140625 C 13.742188 -16.554688 13.515625 -16.804688 13.109375 -16.890625 L 13.109375 -17.21875 L 15.8125 -17.21875 L 15.8125 -16.890625 C 15.46875 -16.773438 15.140625 -16.546875 14.828125 -16.203125 C 14.515625 -15.859375 14.1875 -15.21875 13.84375 -14.28125 L 12.46875 -10.53125 L 15.796875 -2.484375 L 20.0625 -14.28125 C 20.632812 -15.84375 20.503906 -16.710938 19.671875 -16.890625 L 19.671875 -17.21875 L 22.453125 -17.21875 L 22.453125 -16.890625 C 22.109375 -16.773438 21.78125 -16.546875 21.46875 -16.203125 C 21.15625 -15.859375 20.828125 -15.21875 20.484375 -14.28125 L 15.34375 0 L 14.65625 0 L 11.234375 -8.34375 L 7.84375 0 L 7.15625 0 L 1.71875 -14.28125 C 1.363281 -15.238281 1.039062 -15.882812 0.75 -16.21875 C 0.457031 -16.550781 0.175781 -16.773438 -0.09375 -16.890625 L -0.09375 -17.21875 L 3.71875 -17.21875 L 3.71875 -16.890625 C 3.332031 -16.773438 3.164062 -16.550781 3.21875 -16.21875 C 3.269531 -15.882812 3.476562 -15.238281 3.84375 -14.28125 L 8.390625 -2.4375 L 11.015625 -8.875 Z M 8.78125 -14.3125 "/></g></g></g><g fill="#fbfaf4" fill-opacity="1"><g transform="translate(165.427542, 285.457413)"><g><path d="M -0.421875 0 L -0.421875 -0.3125 C -0.078125 -0.425781 0.253906 -0.648438 0.578125 -0.984375 C 0.910156 -1.328125 1.265625 -1.96875 1.640625 -2.90625 L 6.5 -14.90625 C 6.644531 -15.300781 6.625 -15.6875 6.4375 -16.0625 L 6.21875 -16.578125 L 8.0625 -17.40625 L 14.109375 -2.875 C 14.492188 -1.957031 14.835938 -1.328125 15.140625 -0.984375 C 15.441406 -0.648438 15.722656 -0.425781 15.984375 -0.3125 L 15.984375 0 L 12.171875 0 L 12.171875 -0.3125 C 12.546875 -0.425781 12.703125 -0.648438 12.640625 -0.984375 C 12.578125 -1.328125 12.347656 -1.957031 11.953125 -2.875 L 10.453125 -6.5 L 3.515625 -6.5 L 2.0625 -2.90625 C 1.4375 -1.34375 1.535156 -0.476562 2.359375 -0.3125 L 2.359375 0 Z M 3.671875 -6.859375 L 10.3125 -6.859375 L 6.9375 -14.953125 Z M 3.671875 -6.859375 "/></g></g></g><g fill="#fbfaf4" fill-opacity="1"><g transform="translate(185.051708, 285.457413)"><g/></g></g><g fill="#fbfaf4" fill-opacity="1"><g transform="translate(194.077099, 285.457413)"><g><path d="M 1.25 0 L 1.25 -0.3125 C 1.625 -0.425781 1.878906 -0.671875 2.015625 -1.046875 C 2.160156 -1.429688 2.234375 -2.125 2.234375 -3.125 L 2.234375 -14.09375 C 2.234375 -15.101562 2.160156 -15.789062 2.015625 -16.15625 C 1.878906 -16.53125 1.625 -16.773438 1.25 -16.890625 L 1.25 -17.21875 L 7.125 -17.21875 C 8.820312 -17.21875 10.265625 -16.972656 11.453125 -16.484375 C 12.648438 -16.003906 13.625 -15.363281 14.375 -14.5625 C 15.132812 -13.757812 15.691406 -12.867188 16.046875 -11.890625 C 16.398438 -10.910156 16.578125 -9.921875 16.578125 -8.921875 C 16.585938 -7.203125 16.226562 -5.671875 15.5 -4.328125 C 14.769531 -2.984375 13.738281 -1.925781 12.40625 -1.15625 C 11.070312 -0.382812 9.503906 0 7.703125 0 Z M 4.25 -2.171875 C 4.25 -1.585938 4.347656 -1.140625 4.546875 -0.828125 C 4.742188 -0.523438 5.179688 -0.375 5.859375 -0.375 L 7.65625 -0.375 C 9.800781 -0.375 11.453125 -0.988281 12.609375 -2.21875 C 13.765625 -3.457031 14.34375 -5.363281 14.34375 -7.9375 C 14.34375 -9.582031 14.019531 -11.078125 13.375 -12.421875 C 12.738281 -13.765625 11.796875 -14.835938 10.546875 -15.640625 C 9.304688 -16.441406 7.765625 -16.84375 5.921875 -16.84375 L 4.25 -16.84375 Z M 4.25 -2.171875 "/></g></g></g><g fill="#fbfaf4" fill-opacity="1"><g transform="translate(215.766918, 285.457413)"><g><path d="M 13.765625 0.171875 C 13.148438 0.171875 12.660156 0.0195312 12.296875 -0.28125 C 11.929688 -0.582031 11.613281 -1.023438 11.34375 -1.609375 C 11.070312 -2.191406 10.757812 -2.910156 10.40625 -3.765625 C 10.039062 -4.617188 9.734375 -5.363281 9.484375 -6 C 9.242188 -6.632812 8.976562 -7.164062 8.6875 -7.59375 C 8.40625 -8.019531 8.039062 -8.335938 7.59375 -8.546875 C 7.15625 -8.765625 6.566406 -8.875 5.828125 -8.875 L 4.25 -8.875 L 4.25 -3.125 C 4.25 -2.125 4.316406 -1.429688 4.453125 -1.046875 C 4.597656 -0.671875 4.859375 -0.425781 5.234375 -0.3125 L 5.234375 0 L 1.25 0 L 1.25 -0.3125 C 1.625 -0.425781 1.878906 -0.671875 2.015625 -1.046875 C 2.160156 -1.429688 2.234375 -2.125 2.234375 -3.125 L 2.234375 -14.09375 C 2.234375 -15.101562 2.160156 -15.789062 2.015625 -16.15625 C 1.878906 -16.53125 1.625 -16.773438 1.25 -16.890625 L 1.25 -17.21875 L 6.09375 -17.21875 C 7.769531 -17.21875 9.070312 -17.046875 10 -16.703125 C 10.9375 -16.367188 11.597656 -15.914062 11.984375 -15.34375 C 12.367188 -14.769531 12.5625 -14.113281 12.5625 -13.375 C 12.5625 -12.226562 12.148438 -11.25 11.328125 -10.4375 C 10.515625 -9.625 9.304688 -9.128906 7.703125 -8.953125 C 8.453125 -8.847656 9.0625 -8.675781 9.53125 -8.4375 C 10.007812 -8.207031 10.40625 -7.890625 10.71875 -7.484375 C 11.03125 -7.085938 11.304688 -6.601562 11.546875 -6.03125 C 11.796875 -5.457031 12.070312 -4.789062 12.375 -4.03125 C 12.769531 -3.050781 13.097656 -2.289062 13.359375 -1.75 C 13.628906 -1.207031 13.878906 -0.820312 14.109375 -0.59375 C 14.347656 -0.375 14.601562 -0.265625 14.875 -0.265625 C 14.957031 -0.265625 15.023438 -0.265625 15.078125 -0.265625 C 15.140625 -0.265625 15.203125 -0.273438 15.265625 -0.296875 L 15.265625 0 C 15.085938 0.0625 14.851562 0.101562 14.5625 0.125 C 14.28125 0.15625 14.015625 0.171875 13.765625 0.171875 Z M 4.25 -9.25 L 6.328125 -9.25 C 7.734375 -9.25 8.773438 -9.578125 9.453125 -10.234375 C 10.140625 -10.898438 10.484375 -11.757812 10.484375 -12.8125 C 10.484375 -13.550781 10.3125 -14.222656 9.96875 -14.828125 C 9.632812 -15.429688 9.09375 -15.914062 8.34375 -16.28125 C 7.601562 -16.65625 6.625 -16.84375 5.40625 -16.84375 C 5.226562 -16.84375 5.039062 -16.835938 4.84375 -16.828125 C 4.644531 -16.828125 4.445312 -16.816406 4.25 -16.796875 Z M 4.25 -9.25 "/></g></g></g><g fill="#fbfaf4" fill-opacity="1"><g transform="translate(234.677947, 285.457413)"><g><path d="M 10.03125 0.25 C 8.976562 0.25 7.9375 0.0703125 6.90625 -0.28125 C 5.875 -0.632812 4.929688 -1.175781 4.078125 -1.90625 C 3.222656 -2.632812 2.539062 -3.554688 2.03125 -4.671875 C 1.53125 -5.785156 1.28125 -7.101562 1.28125 -8.625 C 1.28125 -10.320312 1.648438 -11.828125 2.390625 -13.140625 C 3.128906 -14.460938 4.148438 -15.503906 5.453125 -16.265625 C 6.765625 -17.023438 8.289062 -17.40625 10.03125 -17.40625 C 11.0625 -17.40625 12.09375 -17.222656 13.125 -16.859375 C 14.164062 -16.503906 15.109375 -15.960938 15.953125 -15.234375 C 16.796875 -14.503906 17.46875 -13.582031 17.96875 -12.46875 C 18.476562 -11.351562 18.734375 -10.039062 18.734375 -8.53125 C 18.734375 -7.007812 18.476562 -5.695312 17.96875 -4.59375 C 17.46875 -3.5 16.789062 -2.585938 15.9375 -1.859375 C 15.082031 -1.140625 14.140625 -0.609375 13.109375 -0.265625 C 12.085938 0.078125 11.0625 0.25 10.03125 0.25 Z M 3.25 -10.0625 C 3.289062 -8.832031 3.515625 -7.640625 3.921875 -6.484375 C 4.328125 -5.328125 4.875 -4.285156 5.5625 -3.359375 C 6.257812 -2.441406 7.078125 -1.710938 8.015625 -1.171875 C 8.953125 -0.640625 9.96875 -0.375 11.0625 -0.375 C 12.375 -0.375 13.460938 -0.660156 14.328125 -1.234375 C 15.203125 -1.804688 15.847656 -2.585938 16.265625 -3.578125 C 16.679688 -4.566406 16.867188 -5.675781 16.828125 -6.90625 C 16.773438 -8.1875 16.546875 -9.421875 16.140625 -10.609375 C 15.742188 -11.796875 15.203125 -12.859375 14.515625 -13.796875 C 13.828125 -14.734375 13.015625 -15.472656 12.078125 -16.015625 C 11.140625 -16.566406 10.125 -16.84375 9.03125 -16.84375 C 7.78125 -16.84375 6.71875 -16.554688 5.84375 -15.984375 C 4.96875 -15.410156 4.300781 -14.613281 3.84375 -13.59375 C 3.394531 -12.582031 3.195312 -11.40625 3.25 -10.0625 Z M 3.25 -10.0625 "/></g></g></g><g fill="#fbfaf4" fill-opacity="1"><g transform="translate(258.531798, 285.457413)"><g><path d="M 10.328125 0.25 C 8.503906 0.25 6.910156 -0.109375 5.546875 -0.828125 C 4.191406 -1.554688 3.140625 -2.570312 2.390625 -3.875 C 1.648438 -5.175781 1.28125 -6.710938 1.28125 -8.484375 C 1.28125 -9.710938 1.492188 -10.867188 1.921875 -11.953125 C 2.359375 -13.035156 2.972656 -13.984375 3.765625 -14.796875 C 4.566406 -15.609375 5.515625 -16.242188 6.609375 -16.703125 C 7.710938 -17.160156 8.921875 -17.390625 10.234375 -17.390625 C 10.972656 -17.390625 11.695312 -17.328125 12.40625 -17.203125 C 13.125 -17.078125 13.773438 -16.914062 14.359375 -16.71875 C 14.953125 -16.519531 15.40625 -16.316406 15.71875 -16.109375 L 15.8125 -13.203125 L 15.5625 -13.15625 C 15.269531 -13.863281 14.828125 -14.503906 14.234375 -15.078125 C 13.648438 -15.648438 12.957031 -16.101562 12.15625 -16.4375 C 11.363281 -16.769531 10.484375 -16.9375 9.515625 -16.9375 C 8.335938 -16.9375 7.28125 -16.671875 6.34375 -16.140625 C 5.40625 -15.609375 4.660156 -14.828125 4.109375 -13.796875 C 3.566406 -12.765625 3.285156 -11.492188 3.265625 -9.984375 C 3.253906 -8.816406 3.421875 -7.660156 3.765625 -6.515625 C 4.109375 -5.367188 4.617188 -4.316406 5.296875 -3.359375 C 5.984375 -2.410156 6.804688 -1.65625 7.765625 -1.09375 C 8.734375 -0.53125 9.84375 -0.25 11.09375 -0.25 C 12.007812 -0.25 12.835938 -0.460938 13.578125 -0.890625 C 14.316406 -1.328125 14.84375 -1.847656 15.15625 -2.453125 L 15.125 -4.96875 C 15.125 -5.738281 15.046875 -6.296875 14.890625 -6.640625 C 14.734375 -6.984375 14.394531 -7.222656 13.875 -7.359375 L 13.875 -7.65625 L 17.09375 -7.65625 L 17.09375 -3.03125 C 16.613281 -2.375 16 -1.796875 15.25 -1.296875 C 14.507812 -0.804688 13.710938 -0.425781 12.859375 -0.15625 C 12.003906 0.113281 11.160156 0.25 10.328125 0.25 Z M 10.328125 0.25 "/></g></g></g><g fill="#fbfaf4" fill-opacity="1"><g transform="translate(280.639664, 285.457413)"><g><path d="M -0.421875 0 L -0.421875 -0.3125 C -0.078125 -0.425781 0.253906 -0.648438 0.578125 -0.984375 C 0.910156 -1.328125 1.265625 -1.96875 1.640625 -2.90625 L 6.5 -14.90625 C 6.644531 -15.300781 6.625 -15.6875 6.4375 -16.0625 L 6.21875 -16.578125 L 8.0625 -17.40625 L 14.109375 -2.875 C 14.492188 -1.957031 14.835938 -1.328125 15.140625 -0.984375 C 15.441406 -0.648438 15.722656 -0.425781 15.984375 -0.3125 L 15.984375 0 L 12.171875 0 L 12.171875 -0.3125 C 12.546875 -0.425781 12.703125 -0.648438 12.640625 -0.984375 C 12.578125 -1.328125 12.347656 -1.957031 11.953125 -2.875 L 10.453125 -6.5 L 3.515625 -6.5 L 2.0625 -2.90625 C 1.4375 -1.34375 1.535156 -0.476562 2.359375 -0.3125 L 2.359375 0 Z M 3.671875 -6.859375 L 10.3125 -6.859375 L 6.9375 -14.953125 Z M 3.671875 -6.859375 "/></g></g></g><g fill="#e1bf98" fill-opacity="1"><g transform="translate(109.531169, 308.004472)"><g><path d="M 3.0625 -0.5625 L 3.0625 0 L 0.375 0 L 0.375 -0.5625 L 1.171875 -0.75 L 1.171875 -5.828125 L 0.375 -6.015625 L 0.375 -6.53125 L 3.0625 -6.578125 L 3.0625 -6.015625 L 2.15625 -5.828125 L 2.15625 -3.765625 L 3.03125 -3.765625 L 4.65625 -6.53125 L 6.203125 -6.578125 L 6.203125 -6.015625 L 5.28125 -5.828125 L 3.84375 -3.453125 L 5.78125 -0.75 L 6.578125 -0.5625 L 6.578125 0 L 3.90625 0 L 3.90625 -0.5625 L 4.703125 -0.75 L 3.078125 -3.015625 L 2.15625 -3.015625 L 2.15625 -0.75 Z M 3.0625 -0.5625 "/></g></g></g><g fill="#e1bf98" fill-opacity="1"><g transform="translate(118.811238, 308.004472)"><g><path d="M 0.046875 0 L 0.046875 -0.5625 L 0.8125 -0.75 L 2.96875 -6.53125 L 3.90625 -6.578125 L 5.984375 -0.75 L 6.765625 -0.5625 L 6.765625 0 L 4.046875 0 L 4.046875 -0.5625 L 4.921875 -0.75 L 4.5625 -1.78125 L 2.109375 -1.78125 L 1.75 -0.75 L 2.640625 -0.5625 L 2.640625 0 Z M 3.359375 -5.375 L 2.375 -2.546875 L 4.3125 -2.546875 Z M 3.359375 -5.375 "/></g></g></g><g fill="#e1bf98" fill-opacity="1"><g transform="translate(128.232458, 308.004472)"><g><path d="M 4.09375 -0.5625 L 4.09375 0 L 1.21875 0 L 1.21875 -0.5625 L 2.15625 -0.75 L 2.15625 -5.828125 L 0.9375 -5.828125 L 0.703125 -4.890625 L 0.09375 -4.890625 L 0.09375 -6.578125 L 5.21875 -6.578125 L 5.21875 -4.890625 L 4.609375 -4.890625 L 4.375 -5.828125 L 3.15625 -5.828125 L 3.15625 -0.75 Z M 4.09375 -0.5625 "/></g></g></g><g fill="#e1bf98" fill-opacity="1"><g transform="translate(136.148059, 308.004472)"><g><path d="M 0.046875 0 L 0.046875 -0.5625 L 0.8125 -0.75 L 2.96875 -6.53125 L 3.90625 -6.578125 L 5.984375 -0.75 L 6.765625 -0.5625 L 6.765625 0 L 4.046875 0 L 4.046875 -0.5625 L 4.921875 -0.75 L 4.5625 -1.78125 L 2.109375 -1.78125 L 1.75 -0.75 L 2.640625 -0.5625 L 2.640625 0 Z M 3.359375 -5.375 L 2.375 -2.546875 L 4.3125 -2.546875 Z M 3.359375 -5.375 "/></g></g></g><g fill="#e1bf98" fill-opacity="1"><g transform="translate(145.569281, 308.004472)"><g><path d="M 0.375 0 L 0.375 -0.5625 L 1.171875 -0.75 L 1.171875 -5.828125 L 0.375 -6.015625 L 0.375 -6.53125 L 2.15625 -6.578125 L 3.203125 -6.578125 C 3.859375 -6.578125 4.375 -6.425781 4.75 -6.125 C 5.125 -5.832031 5.3125 -5.421875 5.3125 -4.890625 C 5.3125 -3.972656 4.90625 -3.363281 4.09375 -3.0625 C 4.238281 -2.925781 4.425781 -2.640625 4.65625 -2.203125 L 5.40625 -0.71875 L 6.0625 -0.5625 L 6.0625 0 L 4.65625 0 L 3.859375 -1.734375 C 3.640625 -2.210938 3.445312 -2.519531 3.28125 -2.65625 C 3.125 -2.800781 2.894531 -2.875 2.59375 -2.875 L 2.15625 -2.875 L 2.15625 -0.75 L 2.96875 -0.5625 L 2.96875 0 Z M 2.15625 -5.828125 L 2.15625 -3.578125 L 2.875 -3.578125 C 3.332031 -3.578125 3.6875 -3.675781 3.9375 -3.875 C 4.195312 -4.082031 4.328125 -4.359375 4.328125 -4.703125 C 4.328125 -5.046875 4.21875 -5.316406 4 -5.515625 C 3.78125 -5.722656 3.5 -5.828125 3.15625 -5.828125 Z M 2.15625 -5.828125 "/></g></g></g><g fill="#e1bf98" fill-opacity="1"><g transform="translate(154.284746, 308.004472)"><g><path d="M 0.65625 -6.578125 L 5.40625 -6.578125 L 5.40625 -5.921875 L 1.640625 -0.75 L 4.5625 -0.75 L 4.75 -1.6875 L 5.359375 -1.6875 L 5.359375 0 L 0.375 0 L 0.375 -0.65625 L 4.140625 -5.828125 L 1.5 -5.828125 L 1.265625 -4.890625 L 0.65625 -4.890625 Z M 0.65625 -6.578125 "/></g></g></g><g fill="#e1bf98" fill-opacity="1"><g transform="translate(162.67085, 308.004472)"><g><path d="M 1.734375 0 L 1.734375 -0.5625 L 2.546875 -0.75 L 2.546875 -2.4375 L 0.71875 -5.84375 L 0.09375 -6.015625 L 0.09375 -6.53125 L 2.453125 -6.578125 L 2.453125 -6.015625 L 1.8125 -5.828125 L 3.0625 -3.203125 L 4.4375 -5.828125 L 3.71875 -6.015625 L 3.71875 -6.53125 L 5.96875 -6.578125 L 5.96875 -6.015625 L 5.390625 -5.84375 L 3.53125 -2.453125 L 3.53125 -0.75 L 4.328125 -0.5625 L 4.328125 0 Z M 1.734375 0 "/></g></g></g><g fill="#e1bf98" fill-opacity="1"><g transform="translate(171.339257, 308.004472)"><g><path d="M 5.125 0 L 2.015625 -5.1875 L 2.015625 -0.75 L 2.921875 -0.5625 L 2.921875 0 L 0.375 0 L 0.375 -0.5625 L 1.171875 -0.75 L 1.171875 -5.828125 L 0.375 -6.015625 L 0.375 -6.53125 L 2.359375 -6.578125 L 5.453125 -1.328125 L 5.453125 -5.828125 L 4.65625 -6.015625 L 4.65625 -6.53125 L 7.109375 -6.578125 L 7.109375 -6.015625 L 6.296875 -5.828125 L 6.296875 0 Z M 5.125 0 "/></g></g></g><g fill="#e1bf98" fill-opacity="1"><g transform="translate(181.372131, 308.004472)"><g><path d="M 0.046875 0 L 0.046875 -0.5625 L 0.8125 -0.75 L 2.96875 -6.53125 L 3.90625 -6.578125 L 5.984375 -0.75 L 6.765625 -0.5625 L 6.765625 0 L 4.046875 0 L 4.046875 -0.5625 L 4.921875 -0.75 L 4.5625 -1.78125 L 2.109375 -1.78125 L 1.75 -0.75 L 2.640625 -0.5625 L 2.640625 0 Z M 3.359375 -5.375 L 2.375 -2.546875 L 4.3125 -2.546875 Z M 3.359375 -5.375 "/></g></g></g><g fill="#e1bf98" fill-opacity="1"><g transform="translate(190.793353, 308.004472)"><g/></g></g><g fill="#e1bf98" fill-opacity="1"><g transform="translate(195.556578, 308.004472)"><g><path d="M 4.09375 -0.5625 L 4.09375 0 L 1.21875 0 L 1.21875 -0.5625 L 2.15625 -0.75 L 2.15625 -5.828125 L 0.9375 -5.828125 L 0.703125 -4.890625 L 0.09375 -4.890625 L 0.09375 -6.578125 L 5.21875 -6.578125 L 5.21875 -4.890625 L 4.609375 -4.890625 L 4.375 -5.828125 L 3.15625 -5.828125 L 3.15625 -0.75 Z M 4.09375 -0.5625 "/></g></g></g><g fill="#e1bf98" fill-opacity="1"><g transform="translate(203.472181, 308.004472)"><g><path d="M 0.5625 -3.21875 C 0.5625 -3.738281 0.628906 -4.210938 0.765625 -4.640625 C 0.910156 -5.066406 1.117188 -5.429688 1.390625 -5.734375 C 1.660156 -6.046875 1.984375 -6.28125 2.359375 -6.4375 C 2.734375 -6.59375 3.148438 -6.671875 3.609375 -6.671875 C 4.066406 -6.671875 4.472656 -6.59375 4.828125 -6.4375 C 5.191406 -6.289062 5.5 -6.070312 5.75 -5.78125 C 6.007812 -5.5 6.203125 -5.148438 6.328125 -4.734375 C 6.460938 -4.328125 6.53125 -3.875 6.53125 -3.375 C 6.53125 -2.863281 6.453125 -2.394531 6.296875 -1.96875 C 6.148438 -1.539062 5.941406 -1.175781 5.671875 -0.875 C 5.398438 -0.570312 5.070312 -0.332031 4.6875 -0.15625 C 4.3125 0.0078125 3.890625 0.09375 3.421875 0.09375 C 2.503906 0.09375 1.796875 -0.191406 1.296875 -0.765625 C 0.804688 -1.335938 0.5625 -2.15625 0.5625 -3.21875 Z M 3.578125 -5.875 C 2.285156 -5.875 1.640625 -5.015625 1.640625 -3.296875 C 1.640625 -1.566406 2.253906 -0.703125 3.484375 -0.703125 C 4.109375 -0.703125 4.59375 -0.921875 4.9375 -1.359375 C 5.28125 -1.796875 5.453125 -2.457031 5.453125 -3.34375 C 5.453125 -5.03125 4.828125 -5.875 3.578125 -5.875 Z M 3.578125 -5.875 "/></g></g></g><g fill="#e1bf98" fill-opacity="1"><g transform="translate(213.175701, 308.004472)"><g><path d="M 3.0625 -0.5625 L 3.0625 0 L 0.375 0 L 0.375 -0.5625 L 1.171875 -0.75 L 1.171875 -5.828125 L 0.375 -6.015625 L 0.375 -6.53125 L 3.0625 -6.578125 L 3.0625 -6.015625 L 2.15625 -5.828125 L 2.15625 -3.765625 L 3.03125 -3.765625 L 4.65625 -6.53125 L 6.203125 -6.578125 L 6.203125 -6.015625 L 5.28125 -5.828125 L 3.84375 -3.453125 L 5.78125 -0.75 L 6.578125 -0.5625 L 6.578125 0 L 3.90625 0 L 3.90625 -0.5625 L 4.703125 -0.75 L 3.078125 -3.015625 L 2.15625 -3.015625 L 2.15625 -0.75 Z M 3.0625 -0.5625 "/></g></g></g><g fill="#e1bf98" fill-opacity="1"><g transform="translate(222.455771, 308.004472)"><g><path d="M 0.046875 0 L 0.046875 -0.5625 L 0.8125 -0.75 L 2.96875 -6.53125 L 3.90625 -6.578125 L 5.984375 -0.75 L 6.765625 -0.5625 L 6.765625 0 L 4.046875 0 L 4.046875 -0.5625 L 4.921875 -0.75 L 4.5625 -1.78125 L 2.109375 -1.78125 L 1.75 -0.75 L 2.640625 -0.5625 L 2.640625 0 Z M 3.359375 -5.375 L 2.375 -2.546875 L 4.3125 -2.546875 Z M 3.359375 -5.375 "/></g></g></g><g fill="#e1bf98" fill-opacity="1"><g transform="translate(231.876993, 308.004472)"><g><path d="M 0.40625 -6.53125 L 3 -6.578125 L 3 -6.015625 L 2.203125 -5.828125 L 2.203125 -0.421875 C 2.203125 0.148438 2.039062 0.597656 1.71875 0.921875 C 1.40625 1.242188 0.96875 1.40625 0.40625 1.40625 L -0.1875 1.359375 L -0.109375 0.65625 L 0.359375 0.65625 C 0.929688 0.65625 1.21875 0.359375 1.21875 -0.234375 L 1.21875 -5.828125 L 0.40625 -6.015625 Z M 0.40625 -6.53125 "/></g></g></g><g fill="#e1bf98" fill-opacity="1"><g transform="translate(237.854116, 308.004472)"><g/></g></g><g fill="#e1bf98" fill-opacity="1"><g transform="translate(242.617341, 308.004472)"><g><path d="M 4.890625 -4.625 L 4.640625 -5.6875 C 4.296875 -5.8125 3.894531 -5.875 3.4375 -5.875 C 2.789062 -5.875 2.296875 -5.640625 1.953125 -5.171875 C 1.617188 -4.710938 1.453125 -4.066406 1.453125 -3.234375 C 1.453125 -2.390625 1.632812 -1.765625 2 -1.359375 C 2.375 -0.953125 2.867188 -0.75 3.484375 -0.75 C 3.617188 -0.75 3.765625 -0.765625 3.921875 -0.796875 C 4.085938 -0.828125 4.242188 -0.875 4.390625 -0.9375 C 4.546875 -1 4.6875 -1.0625 4.8125 -1.125 C 4.9375 -1.1875 5.035156 -1.25 5.109375 -1.3125 L 5.359375 -1.5 L 5.734375 -0.890625 C 5.597656 -0.753906 5.441406 -0.625 5.265625 -0.5 C 5.085938 -0.382812 4.894531 -0.28125 4.6875 -0.1875 C 4.488281 -0.101562 4.273438 -0.0351562 4.046875 0.015625 C 3.828125 0.0664062 3.609375 0.09375 3.390625 0.09375 C 2.429688 0.09375 1.6875 -0.179688 1.15625 -0.734375 C 0.632812 -1.296875 0.375 -2.109375 0.375 -3.171875 C 0.375 -3.703125 0.445312 -4.179688 0.59375 -4.609375 C 0.738281 -5.046875 0.945312 -5.414062 1.21875 -5.71875 C 1.5 -6.03125 1.832031 -6.265625 2.21875 -6.421875 C 2.601562 -6.585938 3.039062 -6.671875 3.53125 -6.671875 C 3.675781 -6.671875 3.832031 -6.660156 4 -6.640625 C 4.175781 -6.617188 4.347656 -6.585938 4.515625 -6.546875 C 4.679688 -6.515625 4.835938 -6.476562 4.984375 -6.4375 C 5.128906 -6.394531 5.25 -6.359375 5.34375 -6.328125 L 5.640625 -6.203125 L 5.59375 -4.625 Z M 4.890625 -4.625 "/></g></g></g><g fill="#e1bf98" fill-opacity="1"><g transform="translate(251.285748, 308.004472)"><g><path d="M 0.65625 -6.578125 L 5.40625 -6.578125 L 5.40625 -5.921875 L 1.640625 -0.75 L 4.5625 -0.75 L 4.75 -1.6875 L 5.359375 -1.6875 L 5.359375 0 L 0.375 0 L 0.375 -0.65625 L 4.140625 -5.828125 L 1.5 -5.828125 L 1.265625 -4.890625 L 0.65625 -4.890625 Z M 0.65625 -6.578125 "/></g></g></g><g fill="#e1bf98" fill-opacity="1"><g transform="translate(259.671852, 308.004472)"><g><path d="M 0.046875 0 L 0.046875 -0.5625 L 0.8125 -0.75 L 2.96875 -6.53125 L 3.90625 -6.578125 L 5.984375 -0.75 L 6.765625 -0.5625 L 6.765625 0 L 4.046875 0 L 4.046875 -0.5625 L 4.921875 -0.75 L 4.5625 -1.78125 L 2.109375 -1.78125 L 1.75 -0.75 L 2.640625 -0.5625 L 2.640625 0 Z M 3.359375 -5.375 L 2.375 -2.546875 L 4.3125 -2.546875 Z M 3.359375 -5.375 "/></g></g></g><g fill="#e1bf98" fill-opacity="1"><g transform="translate(269.093074, 308.004472)"><g><path d="M 0.40625 -6.53125 L 3 -6.578125 L 3 -6.015625 L 2.203125 -5.828125 L 2.203125 -0.421875 C 2.203125 0.148438 2.039062 0.597656 1.71875 0.921875 C 1.40625 1.242188 0.96875 1.40625 0.40625 1.40625 L -0.1875 1.359375 L -0.109375 0.65625 L 0.359375 0.65625 C 0.929688 0.65625 1.21875 0.359375 1.21875 -0.234375 L 1.21875 -5.828125 L 0.40625 -6.015625 Z M 0.40625 -6.53125 "/></g></g></g><g fill="#e1bf98" fill-opacity="1"><g transform="translate(275.070197, 308.004472)"><g><path d="M 0.046875 0 L 0.046875 -0.5625 L 0.8125 -0.75 L 2.96875 -6.53125 L 3.90625 -6.578125 L 5.984375 -0.75 L 6.765625 -0.5625 L 6.765625 0 L 4.046875 0 L 4.046875 -0.5625 L 4.921875 -0.75 L 4.5625 -1.78125 L 2.109375 -1.78125 L 1.75 -0.75 L 2.640625 -0.5625 L 2.640625 0 Z M 3.359375 -5.375 L 2.375 -2.546875 L 4.3125 -2.546875 Z M 3.359375 -5.375 "/></g></g></g></svg>